<?xml version="1.0" encoding="UTF-8"?>
<svg version="1.1" xmlns="http://www.w3.org/2000/svg" width="1024" height="1024">
<path d="M0 0 C27.1367487 -0.47412613 27.1367487 -0.47412613 36.48828125 7.68359375 C40.56781303 12.50485859 39.78858844 17.02483647 39.55078125 23.12109375 C39.17665656 27.48905044 38.64991287 31.83298901 38.11328125 36.18359375 C36.88348016 46.83637859 35.78477194 57.39561335 35.55078125 68.12109375 C35.5235498 69.34844238 35.49631836 70.57579102 35.46826172 71.84033203 C34.36135092 127.99975255 39.72675938 191.41973048 71.60864258 239.48120117 C72.55078125 241.12109375 72.55078125 241.12109375 72.55078125 243.12109375 C73.21078125 243.45109375 73.87078125 243.78109375 74.55078125 244.12109375 C75.61706638 245.69541501 76.62884808 247.3068354 77.61328125 248.93359375 C83.82882256 258.85799716 90.97593155 267.84099999 98.7409668 276.57739258 C102.55078125 280.91137405 102.55078125 280.91137405 102.55078125 283.12109375 C103.21078125 283.12109375 103.87078125 283.12109375 104.55078125 283.12109375 C106.1015625 284.6953125 106.1015625 284.6953125 107.86328125 286.80859375 C111.45907187 291.03233949 114.90823643 295.02606387 119.55078125 298.12109375 C116.55078125 299.12109375 116.55078125 299.12109375 114.2734375 298.15234375 C113.39558594 297.64703125 112.51773438 297.14171875 111.61328125 296.62109375 C110.63230469 296.05777344 109.65132812 295.49445313 108.640625 294.9140625 C107.11115234 294.02654297 107.11115234 294.02654297 105.55078125 293.12109375 C104.58269531 292.60160156 103.61460937 292.08210938 102.6171875 291.546875 C94.33917406 287.00660999 87.57571646 281.34583767 80.55078125 275.12109375 C79.85597656 274.53714844 79.16117188 273.95320313 78.4453125 273.3515625 C66.11421918 262.96610011 55.78283229 251.29816099 46.55078125 238.12109375 C46.1021875 237.49058105 45.65359375 236.86006836 45.19140625 236.21044922 C39.07759776 227.5814379 34.0205518 218.71092084 29.51416016 209.14941406 C28.56284936 207.14650222 27.58221644 205.1605786 26.59375 203.17578125 C10.84771999 171.2125863 2.2509733 136.39631729 -5.60595703 101.82226562 C-6.77173443 96.70553563 -7.96443822 91.59659312 -9.19921875 86.49609375 C-9.37364502 85.7395752 -9.54807129 84.98305664 -9.7277832 84.20361328 C-10.81502718 79.75323636 -12.38765021 75.90814664 -14.55566406 71.86962891 C-15.44921875 70.12109375 -15.44921875 70.12109375 -16.44921875 67.12109375 C-19.80983224 61.30464732 -24.05023652 57.03846834 -29.88671875 53.74609375 C-37.79596262 51.81700988 -44.77536971 53.52887495 -51.7734375 57.41015625 C-76.01509922 72.80299408 -89.56476713 106.98811062 -95.609375 133.98046875 C-98.73933014 148.9608321 -100.00432539 163.84130788 -100.44921875 179.12109375 C-101.10921875 179.12109375 -101.76921875 179.12109375 -102.44921875 179.12109375 C-103.26358462 176.7050415 -104.07577272 174.28829377 -104.88671875 171.87109375 C-105.11681641 171.18917969 -105.34691406 170.50726563 -105.58398438 169.8046875 C-107.36847197 164.47708686 -107.36847197 164.47708686 -107.984375 161.76171875 C-108.37676429 159.86850341 -108.37676429 159.86850341 -110.44921875 158.12109375 C-109.78921875 158.12109375 -109.12921875 158.12109375 -108.44921875 158.12109375 C-108.7740625 156.91066406 -108.7740625 156.91066406 -109.10546875 155.67578125 C-117.08466862 120.87760404 -109.88416026 84.31887103 -91.44921875 54.12109375 C-74.30630261 27.38309875 -47.95048952 8.67175355 -17.01953125 1.83203125 C-11.28894234 0.6909293 -5.83066355 0.20470053 0 0 Z " fill="#DE0B3B" transform="translate(528.44921875,165.87890625)"/>
<path d="M0 0 C0.99 0.495 0.99 0.495 2 1 C3.78540039 67.74650682 -24.95330222 121.5521421 -67.78955078 171.09301758 C-68.27665527 171.65657959 -68.76375977 172.2201416 -69.265625 172.80078125 C-69.73291016 173.34041504 -70.20019531 173.88004883 -70.68164062 174.43603516 C-71.91035711 175.89365698 -73.0753475 177.40434368 -74.234375 178.91796875 C-74.81703125 179.60503906 -75.3996875 180.29210937 -76 181 C-76.66 181 -77.32 181 -78 181 C-78.22300781 181.55171875 -78.44601562 182.1034375 -78.67578125 182.671875 C-80.41554097 185.7305676 -82.65764482 187.8073812 -85.1875 190.25 C-88.94492738 193.925652 -92.5347891 197.66108312 -95.94140625 201.6640625 C-97.64395385 203.59598558 -99.37847591 205.47039824 -101.15234375 207.3359375 C-122.21904211 228.13842031 -122.21904211 228.13842031 -130.4375 255.18359375 C-129.56052789 260.82910171 -126.47445701 264.76038729 -122.3125 268.52734375 C-106.85120732 279.49019999 -82.51297774 278.79561244 -64.67578125 276.19921875 C-38.15580247 271.60202788 -13.21655972 261.4293144 10.60546875 249.1484375 C13 248 13 248 15 248 C13.54974765 251.36638887 11.70513547 253.48039225 9.0625 256 C6.95686468 258.01511268 5.08208223 259.88662023 3.37109375 262.25 C2.69240234 263.11625 2.69240234 263.11625 2 264 C1.34 264 0.68 264 0 264 C0 264.66 0 265.32 0 266 C-2.42898017 268.58308465 -5.26512749 270.75021191 -8 273 C-8.86367188 273.73476563 -9.72734375 274.46953125 -10.6171875 275.2265625 C-39.46819282 298.72061723 -73.09519408 309.0627572 -110 307 C-122.24453294 305.71888606 -133.92967292 302.38437755 -145 297 C-145.6492041 296.68434082 -146.2984082 296.36868164 -146.96728516 296.04345703 C-156.96058604 291.0576715 -165.38203697 284.93258756 -173.55322266 277.34130859 C-174.77022679 276.21302295 -176.01317608 275.11281473 -177.26171875 274.01953125 C-188.29185243 263.88433742 -202.26368658 244.41285797 -203.25 229.125 C-203.40127924 225.26737947 -202.35265079 223.05892324 -200 220 C-197.65145585 218.43527158 -195.42406776 217.1094616 -192.9375 215.8125 C-191.4933773 215.03145757 -190.04937134 214.25019927 -188.60546875 213.46875 C-187.4750415 212.86546875 -187.4750415 212.86546875 -186.32177734 212.25 C-183.98769149 210.99337334 -181.67354163 209.70610592 -179.36328125 208.40625 C-178.59314697 207.9733667 -177.8230127 207.5404834 -177.02954102 207.09448242 C-175.56749689 206.27224898 -174.10572134 205.44953768 -172.64428711 204.6262207 C-168.53490246 202.33546956 -164.38047872 200.18937983 -160.15625 198.1171875 C-154.16256978 195.14070507 -148.4471581 191.81829219 -142.75 188.3125 C-141.75564941 187.7030957 -140.76129883 187.09369141 -139.73681641 186.46582031 C-120.77143955 174.75668172 -101.30430361 161.73789155 -85.72265625 145.6484375 C-84 144 -84 144 -82 144 C-82 143.34 -82 142.68 -82 142 C-80.671875 140.73046875 -80.671875 140.73046875 -78.75 139.1875 C-68.12260387 130.11578972 -59.38632649 119.11246824 -51 108 C-50.24976563 107.0112085 -50.24976563 107.0112085 -49.484375 106.00244141 C-47.96019586 103.98704165 -46.4466601 101.96416473 -44.9375 99.9375 C-44.47206787 99.3182666 -44.00663574 98.6990332 -43.52709961 98.06103516 C-41.15020643 94.83022928 -39.27566873 91.81259185 -38 88 C-37.34 88 -36.68 88 -36 88 C-35.76539063 87.34515625 -35.53078125 86.6903125 -35.2890625 86.015625 C-33.60756713 82.08194491 -31.49496154 78.46102709 -29.375 74.75 C-16.14064279 51.16787007 -6.47994976 26.23943783 0 0 Z " fill="#DE0C3C" transform="translate(478,264)"/>
<path d="M0 0 C36.03184229 3.93822746 64.5599938 19.5599938 90 45 C91.45314312 46.84650989 92.84360199 48.73390948 94.23828125 50.625 C95.42394644 52.22341338 96.63024008 53.8067073 97.85546875 55.375 C117.22476565 80.73679394 125.51835449 111.78878673 121.5390625 143.48046875 C118.17395104 161.94899221 109.1661792 184.5951512 95.25 197.5625 C91.02576354 200.26131774 86.88640118 200.52700909 82 200 C79.41611292 199.04758728 77.26455748 198.10848316 74.875 196.8125 C74.19961182 196.46082764 73.52422363 196.10915527 72.82836914 195.74682617 C64.98601426 191.59116118 57.39473358 186.98328497 49.77734375 182.43359375 C-23.54446339 138.71368131 -98.28794765 117.07720343 -183 137 C-187.83682742 138.27047842 -192.64097026 139.63906121 -197.41748047 141.12036133 C-201.38604825 142.34142824 -204.79031302 143.36717351 -209 143 C-186.99573578 126.04964231 -158.7195306 115.52169597 -131.875 109.25 C-131.02929443 109.05108154 -130.18358887 108.85216309 -129.31225586 108.6472168 C-115.82235695 105.66014029 -102.40388824 104.61701874 -88.625 104.6875 C-87.89421234 104.68899048 -87.16342468 104.69048096 -86.41049194 104.6920166 C-72.46887564 104.74261521 -58.77745671 105.80240792 -45 108 C-44.20246307 108.12617706 -43.40492615 108.25235413 -42.58322144 108.38235474 C-28.99135233 110.559057 -15.66597137 113.3727829 -2.31719971 116.71884155 C38.14719986 129.37391493 38.14719986 129.37391493 78 125 C82.10530663 121.7157547 84.83884276 118.15375173 86 113 C87.16624879 101.94908158 85.38156429 90.71470522 80.36328125 80.75 C79 78 79 78 79 75 C78.01 74.67 77.02 74.34 76 74 C76 73.34 76 72.68 76 72 C74.71456395 69.78619346 73.39479295 67.64344574 72 65.5 C71.59499268 64.87432129 71.18998535 64.24864258 70.77270508 63.60400391 C66.62932406 57.29327864 62.22194395 51.10344864 56.76953125 45.8515625 C55 44 55 44 55 42 C54.38125 41.7525 53.7625 41.505 53.125 41.25 C50.59641373 39.76259631 50.28160996 38.56321991 49 36 C48.41476562 35.71769531 47.82953125 35.43539062 47.2265625 35.14453125 C44.44637446 33.71541705 42.6200058 31.86479927 40.375 29.6875 C29.30175894 19.45807544 14.48591986 6.82863995 0 2 C0 1.34 0 0.68 0 0 Z " fill="#DE0C3C" transform="translate(601,365)"/>
<path d="M0 0 C1.27617187 0.02320313 2.55234375 0.04640625 3.8671875 0.0703125 C5.78917969 0.09738281 5.78917969 0.09738281 7.75 0.125 C9.23113281 0.15980469 9.23113281 0.15980469 10.7421875 0.1953125 C14.87686716 8.94847882 18.51561643 17.88125522 22.10083008 26.86889648 C23.06600576 29.28615886 24.03768457 31.70074188 25.00976562 34.11523438 C25.62538964 35.65348995 26.24063828 37.19189582 26.85546875 38.73046875 C27.14601639 39.45122086 27.43656403 40.17197296 27.73591614 40.91456604 C29.7421875 45.96586925 29.7421875 45.96586925 29.7421875 48.1953125 C32.7697515 47.55312799 32.7697515 47.55312799 33.67431641 45.5949707 C34.06756104 44.55602661 34.06756104 44.55602661 34.46875 43.49609375 C34.77409668 42.70920166 35.07944336 41.92230957 35.39404297 41.11157227 C35.71518066 40.25233154 36.03631836 39.39309082 36.3671875 38.5078125 C37.06919408 36.68967194 37.77236362 34.87198007 38.4765625 33.0546875 C39.02666992 31.62286133 39.02666992 31.62286133 39.58789062 30.16210938 C41.53136992 25.16694008 43.57652328 20.2138896 45.6171875 15.2578125 C46.36488003 13.43631968 47.11229401 11.61471248 47.859375 9.79296875 C48.17503418 9.02476807 48.49069336 8.25656738 48.81591797 7.46508789 C49.80290889 5.04651788 50.77203771 2.62068697 51.7421875 0.1953125 C56.3621875 0.1953125 60.9821875 0.1953125 65.7421875 0.1953125 C66.5029287 3.9990185 66.93499515 7.26250107 67.11523438 11.09277344 C67.20037292 12.84179962 67.20037292 12.84179962 67.28723145 14.62615967 C67.34455444 15.88132385 67.40187744 17.13648804 67.4609375 18.4296875 C67.55695954 20.42739555 67.65298234 22.42510357 67.74904633 24.4228096 C67.88275413 27.22343722 68.01296717 30.02422347 68.14324951 32.82501221 C68.40052264 38.33852934 68.6647661 43.85171856 68.92819214 49.36494446 C69.02276625 51.35307651 69.11600217 53.34127207 69.20922852 55.32946777 C69.60672235 63.71936951 70.08093239 72.09920748 70.67382812 80.47753906 C70.69638672 81.3744043 70.71894531 82.27126953 70.7421875 83.1953125 C69.7421875 84.1953125 69.7421875 84.1953125 67.01953125 84.29296875 C65.36630859 84.27556641 65.36630859 84.27556641 63.6796875 84.2578125 C62.57496094 84.24878906 61.47023438 84.23976563 60.33203125 84.23046875 C59.47738281 84.21886719 58.62273437 84.20726562 57.7421875 84.1953125 C57.68683838 83.02250732 57.63148926 81.84970215 57.57446289 80.64135742 C57.36436402 76.19243983 57.15358608 71.74355461 56.94262695 67.29467773 C56.85227915 65.38745962 56.76210339 63.48023335 56.67211914 61.57299805 C56.06830521 48.77821461 55.42939578 35.98589562 54.7421875 23.1953125 C54.30874023 24.27949463 53.87529297 25.36367676 53.42871094 26.48071289 C51.80871464 30.52885872 50.18196041 34.5742607 48.55322266 38.61889648 C47.85119987 40.36490761 47.15097579 42.11164312 46.45263672 43.85913086 C45.44458294 46.38070332 44.4299426 48.89954079 43.4140625 51.41796875 C43.10660095 52.19116959 42.7991394 52.96437042 42.48236084 53.76100159 C37.36288308 66.39274156 37.36288308 66.39274156 33.70703125 68.203125 C28.20861707 68.52095241 28.20861707 68.52095241 26.18115234 67.10546875 C24.16208675 64.4252568 23.05331302 61.61189366 21.78125 58.5078125 C21.50880463 57.85006836 21.23635925 57.19232422 20.95565796 56.51464844 C20.08577172 54.41103246 19.22607256 52.30344106 18.3671875 50.1953125 C17.51355249 48.11658014 16.65774166 46.03876903 15.80014038 43.96166992 C15.26862316 42.67258994 14.73958825 41.38248183 14.21377563 40.09106445 C11.87087329 34.3779473 9.30442125 28.83222676 6.7421875 23.1953125 C6.0821875 43.3253125 5.4221875 63.4553125 4.7421875 84.1953125 C1.08578711 86.02351269 -3.29048122 84.65308149 -7.2578125 84.1953125 C-7.42305956 70.30996887 -6.83257914 56.50860593 -6.11230469 42.64453125 C-5.96889397 39.85436352 -5.83042946 37.06401883 -5.6953125 34.2734375 C-5.65083984 33.36557495 -5.60636719 32.4577124 -5.56054688 31.52233887 C-5.22020309 23.91356186 -5.20853922 16.31998771 -5.38256836 8.70587158 C-5.39425049 7.87964294 -5.40593262 7.05341431 -5.41796875 6.20214844 C-5.43480713 5.47445251 -5.45164551 4.74675659 -5.46899414 3.99700928 C-5.04598633 0.38811696 -3.33960074 0.20021587 0 0 Z M30.7421875 49.1953125 C31.7421875 51.1953125 31.7421875 51.1953125 31.7421875 51.1953125 Z " fill="#595959" transform="translate(389.2578125,643.8046875)"/>
<path d="M0 0 C1.20785156 -0.01224609 2.41570313 -0.02449219 3.66015625 -0.03710938 C13.89853013 -0.05382054 22.84742655 0.47687831 31 7.1875 C36.98908568 14.59505334 37.75562797 21.93715109 37 31.1875 C35.3504675 40.04998828 28.74093556 44.85961279 22 50.1875 C27.60629367 59.33269055 33.33146592 68.33156594 39.5949707 77.04492188 C43 81.86650738 43 81.86650738 43 85.1875 C41.22925083 85.21455729 39.45838289 85.23392195 37.6875 85.25 C36.70136719 85.26160156 35.71523438 85.27320313 34.69921875 85.28515625 C32 85.1875 32 85.1875 29 84.1875 C27.65649414 82.53955078 27.65649414 82.53955078 26.28515625 80.3828125 C25.76904785 79.58029053 25.25293945 78.77776855 24.72119141 77.95092773 C24.17382324 77.08024658 23.62645508 76.20956543 23.0625 75.3125 C22.49708496 74.4244165 21.93166992 73.53633301 21.34912109 72.62133789 C20.16300539 70.75657174 18.98012956 68.88974136 17.80029297 67.02099609 C16.03642217 64.24482516 14.2437975 61.48956232 12.44140625 58.73828125 C11.33558053 57.03408574 10.23009815 55.32966739 9.125 53.625 C8.59527588 52.82271973 8.06555176 52.02043945 7.51977539 51.19384766 C7.04145264 50.44796387 6.56312988 49.70208008 6.0703125 48.93359375 C5.64508301 48.28060303 5.21985352 47.6276123 4.78173828 46.95483398 C4 45.1875 4 45.1875 5 42.1875 C5.65226563 42.08953125 6.30453125 41.9915625 6.9765625 41.890625 C12.47995851 40.94904102 16.68139947 39.96627547 21 36.1875 C23.59351387 30.95591017 23.55160738 25.91042657 23 20.1875 C21.11309885 15.42059183 19.68995816 15.0014749 15 12.1875 C9.72 11.8575 4.44 11.5275 -1 11.1875 C-0.67 35.2775 -0.34 59.3675 0 84.1875 C-6.435 84.6825 -6.435 84.6825 -13 85.1875 C-13.88091887 80.78290566 -14.14190646 76.82897998 -14.12939453 72.38378906 C-14.13114685 71.61413315 -14.13289917 70.84447723 -14.13470459 70.05149841 C-14.13909058 67.51868406 -14.13619775 64.98594001 -14.1328125 62.453125 C-14.1334862 60.69146715 -14.13445677 58.92980939 -14.13571167 57.16815186 C-14.137184 53.48302319 -14.13504799 49.79791881 -14.13037109 46.11279297 C-14.1246573 41.37902025 -14.12796615 36.64530403 -14.13394356 31.91153336 C-14.13754744 28.27770558 -14.13641168 24.64389134 -14.13381577 21.01006317 C-14.13314688 19.26366926 -14.13397358 17.51727414 -14.13629532 15.77088165 C-14.13882082 13.33843195 -14.13498351 10.90607553 -14.12939453 8.47363281 C-14.13141876 7.74637497 -14.13344299 7.01911713 -14.13552856 6.26982117 C-14.09707603 -2.71482032 -7.56653726 0.0039368 0 0 Z " fill="#5B5C5B" transform="translate(848,643.8125)"/>
<path d="M0 0 C1.65612305 -0.01836914 1.65612305 -0.01836914 3.34570312 -0.03710938 C12.89055354 -0.05402287 23.02917866 0.42640987 31.0625 6.1875 C36.02847765 11.26720233 37.79925537 16.97591556 38.375 24 C38.12725009 31.51993854 35.90700908 37.95153847 30.953125 43.6171875 C28.21415468 45.89211739 25.16561659 47.44238895 22.0625 49.1875 C22.73418213 50.17145752 23.40586426 51.15541504 24.09790039 52.16918945 C26.58133505 55.81304279 29.05112544 59.46596771 31.5168457 63.12182617 C32.58702097 64.70442481 33.66090677 66.2845208 34.73852539 67.86206055 C36.28467743 70.12685665 37.81736856 72.40024596 39.34765625 74.67578125 C40.07723289 75.73530754 40.07723289 75.73530754 40.82154846 76.8162384 C41.9818941 78.55586161 43.03302999 80.36736748 44.0625 82.1875 C43.5675 83.6725 43.5675 83.6725 43.0625 85.1875 C31.99002204 85.75361166 31.99002204 85.75361166 28.0625 82.5625 C26.18801737 79.86324501 24.64145874 77.07124682 23.0625 74.1875 C21.11866395 71.01926242 19.11821753 67.88732992 17.125 64.75 C16.60897217 63.92532227 16.09294434 63.10064453 15.5612793 62.25097656 C12.05324776 56.65812438 8.37634103 51.28911925 4.390625 46.0234375 C3.0625 44.1875 3.0625 44.1875 3.0625 43.1875 C3.85914063 43.01734375 4.65578125 42.8471875 5.4765625 42.671875 C13.95481758 40.86799552 13.95481758 40.86799552 21.0625 36.1875 C24.18997984 31.19511552 24.50627658 26.2050531 23.7109375 20.4609375 C22.72250131 16.99545642 20.91284943 15.29132934 18.0625 13.1875 C12.02097701 11.173659 5.41842258 11.58474516 -0.9375 11.1875 C-0.6075 35.2775 -0.2775 59.3675 0.0625 84.1875 C-2.43889602 85.43819801 -4.21142691 85.32052467 -7 85.3125 C-8.34771484 85.31636719 -8.34771484 85.31636719 -9.72265625 85.3203125 C-11.9375 85.1875 -11.9375 85.1875 -12.9375 84.1875 C-13.03789611 81.60649244 -13.07367269 79.05222103 -13.06689453 76.47070312 C-13.06864685 75.66261703 -13.07039917 74.85453094 -13.07220459 74.0219574 C-13.07662376 71.3375334 -13.07368489 68.65317472 -13.0703125 65.96875 C-13.07098552 64.11169421 -13.07195553 62.2546385 -13.07321167 60.39758301 C-13.07468873 56.50023563 -13.07253382 52.60291113 -13.06787109 48.70556641 C-13.0621738 43.698155 -13.06545276 38.69079719 -13.07144356 33.68338776 C-13.07504895 29.84710279 -13.07391069 26.01083063 -13.07131577 22.17454529 C-13.07064644 20.32767226 -13.07147513 18.48079808 -13.07379532 16.63392639 C-13.07632149 14.05735168 -13.07248177 11.48086499 -13.06689453 8.90429688 C-13.06891876 8.1333519 -13.07094299 7.36240692 -13.07302856 6.56809998 C-13.03675625 -2.41441503 -7.72006768 0.00436903 0 0 Z " fill="#5A5A5A" transform="translate(228.9375,643.8125)"/>
<path d="M0 0 C-0.30975468 1.77131561 -0.62290425 3.54203778 -0.9375 5.3125 C-1.11152344 6.29863281 -1.28554688 7.28476562 -1.46484375 8.30078125 C-2 11 -2 11 -3 14 C-3.66 14 -4.32 14 -5 14 C-5 13.01 -5 12.02 -5 11 C-7.4975194 10.46351828 -9.9967045 9.94570449 -12.5 9.4375 C-13.54414062 9.21030273 -13.54414062 9.21030273 -14.609375 8.97851562 C-20.72398623 7.76125506 -26.19279056 7.62625921 -31.9375 10.4375 C-34.10419559 11.83931825 -34.10419559 11.83931825 -35 14 C-35.55853163 19.51930871 -35.55853163 19.51930871 -33.55859375 24.51171875 C-30.04830809 27.92553854 -26.28139236 29.28239982 -21.75 31 C-4.50399794 37.6601515 -4.50399794 37.6601515 0 45 C3.7518024 53.60803148 3.8136573 60.56921649 0.390625 69.34375 C-2.59141785 75.03978691 -7.27884438 78.52940892 -13.1875 80.875 C-24.7734272 84.29379819 -35.39971824 83.06528657 -47 80 C-47.99 79.34 -48.98 78.68 -50 78 C-49.01 72.555 -49.01 72.555 -48 67 C-47.23816406 67.20496094 -46.47632813 67.40992188 -45.69140625 67.62109375 C-35.84876601 70.18927329 -26.91893897 72.46210784 -17 69 C-14.03335275 66.94151007 -12.47277599 65.55700893 -11.4140625 62.0703125 C-10.70881481 57.91718722 -10.74826391 54.68465906 -13 51 C-17.26414266 46.96116429 -22.0638017 45.11803967 -27.4375 43 C-43.94399205 36.4637866 -43.94399205 36.4637866 -48.0859375 27.703125 C-50.13002126 21.65822773 -50.06789671 14.484124 -47.4375 8.625 C-43.47967229 1.99184624 -38.16985199 -1.62933614 -30.73828125 -3.53515625 C-20.23535697 -5.31810631 -9.91839635 -3.65414603 0 0 Z " fill="#5D5C5C" transform="translate(632,647)"/>
<path d="M0 0 C4.29 0 8.58 0 13 0 C15.87530471 6.97892185 18.3782657 13.97832858 20.64453125 21.17578125 C20.97740646 22.22162888 21.31028168 23.2674765 21.65324402 24.34501648 C22.70981881 27.66641471 23.76146366 30.98934546 24.8125 34.3125 C26.19199174 38.66340338 27.57401057 43.01349848 28.95703125 47.36328125 C29.29300323 48.42257843 29.62897522 49.48187561 29.97512817 50.57327271 C32.53153528 58.60662647 35.18173217 66.60610264 37.9276886 74.57673645 C38.33799568 75.78434883 38.33799568 75.78434883 38.7565918 77.01635742 C38.99774216 77.71693771 39.23889252 78.41751801 39.48735046 79.139328 C40 81 40 81 40 84 C35.71 84 31.42 84 27 84 C26.39937744 82.07172363 25.79875488 80.14344727 25.17993164 78.15673828 C23.19777725 71.79398254 21.2137457 65.43181329 19.22878361 59.06993294 C18.02506985 55.21178001 16.82199407 51.35343053 15.62036133 47.49462891 C14.46123829 43.7724205 13.30045902 40.05073238 12.13851738 36.32940292 C11.69495751 34.90778986 11.25200019 33.48598865 10.80964851 32.06399918 C10.19116887 30.0761853 9.57057256 28.08904419 8.94946289 26.10205078 C8.59638565 24.96953888 8.24330841 23.83702698 7.87953186 22.67019653 C7.09294985 20.06511692 7.09294985 20.06511692 6 18 C3.81201628 24.99653944 1.62960563 31.99479219 -0.54594994 38.99520683 C-1.55660979 42.24666833 -2.56909033 45.49753799 -3.5859375 48.74707031 C-4.75824368 52.4936959 -5.92226186 56.24287196 -7.0859375 59.9921875 C-7.44746918 61.14363251 -7.80900085 62.29507751 -8.18148804 63.48141479 C-9.98779991 69.32394955 -11.51883675 75.0176609 -12.40713501 81.07449341 C-13 83 -13 83 -16 85 C-18.91796875 84.9765625 -18.91796875 84.9765625 -22.1875 84.625 C-23.27417969 84.51414062 -24.36085938 84.40328125 -25.48046875 84.2890625 C-26.31191406 84.19367188 -27.14335937 84.09828125 -28 84 C-27.27737041 81.77082469 -26.55470939 79.54165957 -25.83203125 77.3125 C-25.60081573 76.59925568 -25.36960022 75.88601135 -25.13137817 75.15115356 C-23.82147752 71.11078319 -22.51095943 67.07061437 -21.19946289 63.03076172 C-18.56226659 54.90635259 -15.92767879 46.78115091 -13.30690002 38.65142822 C-12.13606663 35.02077019 -10.96265711 31.39094741 -9.78890991 27.76123047 C-9.22426564 26.01291581 -8.66079663 24.26422111 -8.09854126 22.51513672 C-7.30702609 20.05336516 -6.51136852 17.59296696 -5.71484375 15.1328125 C-5.48403107 14.4113504 -5.25321838 13.68988831 -5.01541138 12.94656372 C-3.57335469 8.50996502 -1.89576232 4.26329078 0 0 Z " fill="#5B5B5B" transform="translate(516,644)"/>
<path d="M0 0 C1.65322266 0.01740234 1.65322266 0.01740234 3.33984375 0.03515625 C4.99693359 0.04869141 4.99693359 0.04869141 6.6875 0.0625 C7.54214844 0.07410156 8.39679688 0.08570313 9.27734375 0.09765625 C11.42565813 4.94731473 13.27157077 9.82333069 14.9128418 14.86889648 C15.27925781 15.98233681 15.27925781 15.98233681 15.65307617 17.11827087 C16.45139572 19.54662696 17.24526072 21.97641376 18.0390625 24.40625 C18.59500536 26.10027459 19.15122808 27.79420737 19.7077179 29.48805237 C21.16539917 33.9274638 22.61929522 38.36810581 24.0723877 42.809021 C25.55832963 47.34804416 27.04787407 51.88588467 28.53710938 56.42382812 C31.45403378 65.31395496 34.36695789 74.20538691 37.27734375 83.09765625 C34.78616797 85.58883203 33.78878926 85.44905923 30.33984375 85.53515625 C29.02693359 85.59509766 29.02693359 85.59509766 27.6875 85.65625 C25.27734375 85.09765625 25.27734375 85.09765625 23.82543945 83.17333984 C21.73771251 79.02554234 20.44111967 74.76453505 19.09765625 70.328125 C18.80301483 69.37432449 18.50837341 68.42052399 18.20480347 67.43782043 C17.26442497 64.38880716 16.33319667 61.33708953 15.40234375 58.28515625 C14.78446934 56.27520141 14.16598549 54.26543382 13.546875 52.25585938 C12.34635052 48.35685008 11.14898898 44.45689262 9.95410156 40.55615234 C7.75775254 33.39416519 5.52209508 26.24459613 3.27734375 19.09765625 C0.71570518 25.66928808 -1.39570236 32.33110511 -3.4453125 39.078125 C-3.79146103 40.20914139 -4.13760956 41.34015778 -4.49424744 42.50544739 C-5.59359787 46.09796119 -6.68972167 49.69144664 -7.78515625 53.28515625 C-8.88429583 56.88953541 -9.98420076 60.49367057 -11.08677673 64.09700012 C-11.7710816 66.33342618 -12.45342283 68.57045425 -13.13356018 70.80815125 C-13.59930702 72.33047112 -13.59930702 72.33047112 -14.07446289 73.88354492 C-14.34521133 74.77208664 -14.61595978 75.66062836 -14.89491272 76.57609558 C-15.73031938 79.12100051 -16.72788056 81.61071703 -17.72265625 84.09765625 C-22.01265625 84.09765625 -26.30265625 84.09765625 -30.72265625 84.09765625 C-28.37551184 75.13161294 -25.58991698 66.34080852 -22.6875 57.54296875 C-22.20313834 56.06857607 -21.71897557 54.59411805 -21.23500061 53.11959839 C-20.22732172 50.05149227 -19.21778708 46.98400551 -18.20678711 43.91699219 C-16.91376328 39.99416218 -15.62465215 36.07006003 -14.33681393 32.14552498 C-13.34035077 29.1099012 -12.34224381 26.07481998 -11.34359932 23.03991318 C-10.8675598 21.59281763 -10.39193161 20.14558669 -9.91673088 18.69821548 C-9.25330349 16.67864829 -8.58776295 14.65978972 -7.92163086 12.64111328 C-7.54429306 11.49514679 -7.16695526 10.3491803 -6.77818298 9.16848755 C-3.67200027 0.13170733 -3.67200027 0.13170733 0 0 Z " fill="#5A5B5A" transform="translate(148.72265625,643.90234375)"/>
<path d="M0 0 C6.53278786 -0.02527002 13.06556321 -0.04283292 19.59838867 -0.05493164 C21.82267732 -0.05997317 24.04696263 -0.06680623 26.27124023 -0.07543945 C29.46078309 -0.08751298 32.65028229 -0.09322996 35.83984375 -0.09765625 C37.34139259 -0.10539818 37.34139259 -0.10539818 38.87327576 -0.11329651 C39.79415482 -0.11337204 40.71503387 -0.11344757 41.66381836 -0.11352539 C42.47878281 -0.115746 43.29374725 -0.11796661 44.13340759 -0.12025452 C46 0 46 0 47 1 C47.09823937 2.66429051 47.12973631 4.33281931 47.125 6 C47.12886719 7.36125 47.12886719 7.36125 47.1328125 8.75 C47 11 47 11 46 12 C43.47905924 12.08847743 40.98569107 12.11527301 38.46484375 12.09765625 C37.33496788 12.09553383 37.33496788 12.09553383 36.18226624 12.09336853 C33.7673044 12.08775376 31.35243399 12.07519883 28.9375 12.0625 C27.30403779 12.0574869 25.67057414 12.05292366 24.03710938 12.04882812 C20.02470415 12.03777954 16.01236759 12.02050506 12 12 C12.07105453 12.58111542 12.14210907 13.16223083 12.21531677 13.76095581 C12.9802039 20.57225121 13.13088317 27.28339805 13.09765625 34.1328125 C13.0962413 35.25066132 13.09482635 36.36851013 13.09336853 37.52023315 C13.08781622 41.05518383 13.07527279 44.59006879 13.0625 48.125 C13.05747883 50.53645741 13.05291701 52.94791583 13.04882812 55.359375 C13.03786246 61.23960537 13.02117253 67.11979799 13 73 C13.99443115 72.99476318 14.9888623 72.98952637 16.01342773 72.98413086 C19.69033921 72.96607959 23.36724675 72.95456754 27.04418945 72.94506836 C28.63794614 72.94002843 30.23169819 72.9331965 31.82543945 72.92456055 C34.11150253 72.91248001 36.39750467 72.90676845 38.68359375 72.90234375 C39.40026718 72.89718246 40.11694061 72.89202118 40.85533142 72.88670349 C42.57063672 72.88650737 44.28581266 72.93807993 46 73 C47 74 47 74 47.09765625 76.28515625 C47.08605469 77.20167969 47.07445312 78.11820313 47.0625 79.0625 C47.05347656 79.98160156 47.04445313 80.90070313 47.03515625 81.84765625 C47.02355469 82.55792969 47.01195312 83.26820313 47 84 C43.60328953 85.13223682 40.99843906 85.12942991 37.41796875 85.1328125 C36.76733963 85.13376923 36.11671051 85.13472595 35.44636536 85.13571167 C34.06360783 85.1363923 32.6808471 85.13454616 31.2980957 85.13037109 C29.2331574 85.12511619 27.16844629 85.13026972 25.10351562 85.13671875 C23.74999954 85.1360561 22.39648358 85.13477111 21.04296875 85.1328125 C19.83664795 85.13168457 18.63032715 85.13055664 17.38745117 85.12939453 C11.24648933 85.02519823 5.1213343 84.47143276 -1 84 C-1.02314922 73.49072836 -1.04092829 62.98146276 -1.05181217 52.47217083 C-1.05703533 47.59252206 -1.06412275 42.7128907 -1.07543945 37.83325195 C-1.08628839 33.12595765 -1.09228111 28.41868012 -1.09487724 23.71137428 C-1.09672786 21.91360014 -1.10034154 20.11582694 -1.10573006 18.31805992 C-1.11296707 15.80406063 -1.11398981 13.29013105 -1.11352539 10.77612305 C-1.11712067 10.02949905 -1.12071594 9.28287506 -1.12442017 8.5136261 C-1.1181747 5.3984415 -0.9931395 2.97941849 0 0 Z " fill="#5E5F5E" transform="translate(753,644)"/>
<path d="M0 0 C1.17792114 -0.00315216 2.35584229 -0.00630432 3.56945801 -0.009552 C4.85171265 -0.00752777 6.13396729 -0.00550354 7.45507812 -0.00341797 C8.76085815 -0.00437469 10.06663818 -0.00533142 11.4119873 -0.00631714 C14.17945535 -0.0077938 16.94689116 -0.00564058 19.71435547 -0.00097656 C23.26895462 0.00472073 26.82347827 0.00144155 30.37807465 -0.00454903 C33.75791526 -0.00902294 37.13773536 -0.00589433 40.51757812 -0.00341797 C41.79983276 -0.0054422 43.0820874 -0.00746643 44.40319824 -0.009552 C46.17007996 -0.00482376 46.17007996 -0.00482376 47.97265625 0 C49.0155481 0.00079559 50.05843994 0.00159119 51.13293457 0.00241089 C53.48632812 0.12939453 53.48632812 0.12939453 54.48632812 1.12939453 C54.48632812 4.75939453 54.48632812 8.38939453 54.48632812 12.12939453 C46.23632812 12.12939453 37.98632812 12.12939453 29.48632812 12.12939453 C29.98132813 17.07939453 29.98132813 17.07939453 30.48632812 22.12939453 C30.5632414 24.40396253 30.60453636 26.68019149 30.59985352 28.95605469 C30.59977798 30.196586 30.59970245 31.43711731 30.59962463 32.71524048 C30.59446335 34.01980194 30.58930206 35.3243634 30.58398438 36.66845703 C30.58211481 38.04421944 30.58069346 39.41998253 30.57969666 40.79574585 C30.57591384 44.38281149 30.56612075 47.96983539 30.55499268 51.55688477 C30.54468648 55.23078853 30.54017948 58.90469917 30.53515625 62.57861328 C30.52449383 69.76222809 30.50693238 76.9458001 30.48632812 84.12939453 C26.19632813 84.12939453 21.90632812 84.12939453 17.48632812 84.12939453 C17.48632812 60.36939453 17.48632812 36.60939453 17.48632812 12.12939453 C9.56632813 12.12939453 1.64632812 12.12939453 -6.51367188 12.12939453 C-6.51367188 0.0049691 -6.51367188 0.0049691 0 0 Z " fill="#626262" transform="translate(667.513671875,643.87060546875)"/>
<path d="M0 0 C1.04590805 0.00222061 2.0918161 0.00444122 3.16941833 0.00672913 C4.35056717 0.00680466 5.531716 0.00688019 6.74865723 0.00695801 C8.03404892 0.01211929 9.31944061 0.01728058 10.64378357 0.02259827 C12.60601112 0.02472069 12.60601112 0.02472069 14.60787964 0.02688599 C18.09150591 0.03071042 21.57509071 0.04054005 25.05870056 0.05158997 C28.6111444 0.06180569 32.16359491 0.06638395 35.71604919 0.07142639 C42.69067736 0.0821624 49.66527108 0.09975859 56.63987732 0.12025452 C56.63987732 4.08025452 56.63987732 8.04025452 56.63987732 12.12025452 C48.71987732 12.12025452 40.79987732 12.12025452 32.63987732 12.12025452 C32.63987732 36.21025452 32.63987732 60.30025452 32.63987732 85.12025452 C29.00987732 85.12025452 25.37987732 85.12025452 21.63987732 85.12025452 C20.63987732 84.12025452 20.63987732 84.12025452 20.5196228 81.26660156 C20.52184341 79.98974991 20.52406403 78.71289825 20.52635193 77.39735413 C20.5262059 76.69495102 20.52605988 75.99254791 20.52590942 75.26885986 C20.5266086 72.93674173 20.53440115 70.60470252 20.54222107 68.27259827 C20.54408523 66.65977014 20.54550914 65.04694144 20.54650879 63.43411255 C20.55033409 59.18110094 20.56016447 54.92812328 20.57121277 50.67512512 C20.58142663 46.33848022 20.58600635 42.00182985 20.59104919 37.66517639 C20.60178673 29.15018509 20.61938362 20.63522793 20.63987732 12.12025452 C12.71987732 12.12025452 4.79987732 12.12025452 -3.36012268 12.12025452 C-3.36012268 0.17120717 -3.36012268 0.17120717 0 0 Z " fill="#5A5B5A" transform="translate(297.36012268066406,643.8797454833984)"/>
<path d="M0 0 C0 3.63 0 7.26 0 11 C-8.25 11 -16.5 11 -25 11 C-24.505 15.95 -24.505 15.95 -24 21 C-23.92308672 23.27456799 -23.88179176 25.55079696 -23.88647461 27.82666016 C-23.88655014 29.06719147 -23.88662567 30.30772278 -23.88670349 31.58584595 C-23.89186478 32.89040741 -23.89702606 34.19496887 -23.90234375 35.5390625 C-23.90421332 36.91482491 -23.90563467 38.290588 -23.90663147 39.66635132 C-23.91041428 43.25341696 -23.92020738 46.84044086 -23.93133545 50.42749023 C-23.94164165 54.101394 -23.94614864 57.77530464 -23.95117188 61.44921875 C-23.9618343 68.63283356 -23.97939574 75.81640557 -24 83 C-27.96 83 -31.92 83 -36 83 C-36 59.24 -36 35.48 -36 11 C-35.67 11 -35.34 11 -35 11 C-34.67 34.1 -34.34 57.2 -34 81 C-31.36 81 -28.72 81 -26 81 C-26.33 80.01 -26.66 79.02 -27 78 C-27.09374831 76.05874985 -27.12793012 74.1144104 -27.12939453 72.17089844 C-27.13254669 70.972453 -27.13569885 69.77400757 -27.13894653 68.53924561 C-27.1369223 67.24238831 -27.13489807 65.94553101 -27.1328125 64.609375 C-27.13348646 63.26279686 -27.13445725 61.91621884 -27.13571167 60.56964111 C-27.13718633 57.74514611 -27.13504287 54.92068273 -27.13037109 52.09619141 C-27.12469583 48.49067517 -27.12794023 44.88523375 -27.13394356 41.27972031 C-27.13757415 38.4966171 -27.13639877 35.71353132 -27.13381577 32.93042755 C-27.13283111 30.95913138 -27.13585026 28.98783451 -27.13894653 27.01654053 C-27.0975121 11.0975121 -27.0975121 11.0975121 -25 9 C-23.29227642 8.91286169 -21.58101351 8.89299993 -19.87109375 8.90234375 C-18.31938477 8.90717773 -18.31938477 8.90717773 -16.73632812 8.91210938 C-15.64771484 8.92048828 -14.55910156 8.92886719 -13.4375 8.9375 C-11.7987793 8.94426758 -11.7987793 8.94426758 -10.12695312 8.95117188 C-7.41791505 8.96300174 -4.70898401 8.97948457 -2 9 C-2 6.69 -2 4.38 -2 2 C-20.48 2 -38.96 2 -58 2 C-58 4.31 -58 6.62 -58 9 C-50.74 9 -43.48 9 -36 9 C-36 9.33 -36 9.66 -36 10 C-43.92 10 -51.84 10 -60 10 C-59.67 7.03 -59.34 4.06 -59 1 C-51.8833229 0.8564665 -44.76662156 0.71418391 -37.64990234 0.57275391 C-35.23095133 0.52453669 -32.81200591 0.47603748 -30.39306641 0.42724609 C-26.90789212 0.35699783 -23.42269866 0.28777748 -19.9375 0.21875 C-18.32609131 0.18593933 -18.32609131 0.18593933 -16.68212891 0.15246582 C-11.12004343 0.04334074 -5.56314988 -0.02337458 0 0 Z " fill="#444545" transform="translate(722,645)"/>
<path d="M0 0 C13.53 0 27.06 0 41 0 C41 0.33 41 0.66 41 1 C27.72869212 2.32713079 14.33749935 2 1 2 C1 27.74 1 53.48 1 80 C15.19 80 29.38 80 44 80 C44 80.33 44 80.66 44 81 C41.03 81.495 41.03 81.495 38 82 C38 82.33 38 82.66 38 83 C25.09011951 83.97564549 12.9987783 84.08323152 0 83 C0 55.61 0 28.22 0 0 Z " fill="#454545" transform="translate(754,645)"/>
<path d="M0 0 C1.20366211 0.00483398 1.20366211 0.00483398 2.43164062 0.00976562 C3.68170898 0.02233398 3.68170898 0.02233398 4.95703125 0.03515625 C5.80201172 0.03966797 6.64699219 0.04417969 7.51757812 0.04882812 C9.6015928 0.06060222 11.68557102 0.07853735 13.76953125 0.09765625 C13.96354758 1.9094703 14.149575 3.72214157 14.33203125 5.53515625 C14.43644531 6.54449219 14.54085937 7.55382812 14.6484375 8.59375 C14.68839844 9.42003906 14.72835937 10.24632812 14.76953125 11.09765625 C13.18015569 12.68703181 11.53053279 12.22746768 9.33203125 12.23046875 C7.99011719 12.23240234 7.99011719 12.23240234 6.62109375 12.234375 C5.68007813 12.23050781 4.7390625 12.22664062 3.76953125 12.22265625 C2.35800781 12.22845703 2.35800781 12.22845703 0.91796875 12.234375 C0.02335938 12.23308594 -0.87125 12.23179687 -1.79296875 12.23046875 C-2.61925781 12.22934082 -3.44554687 12.22821289 -4.296875 12.22705078 C-6.23046875 12.09765625 -6.23046875 12.09765625 -7.23046875 11.09765625 C-7.30252386 9.41156659 -7.31432943 7.72264966 -7.29296875 6.03515625 C-7.28394531 5.11605469 -7.27492188 4.19695313 -7.265625 3.25 C-7.25402344 2.53972656 -7.24242187 1.82945312 -7.23046875 1.09765625 C-4.46481493 0.17577164 -2.84763173 -0.02019597 0 0 Z " fill="#5D5D5D" transform="translate(782.23046875,678.90234375)"/>
<path d="M0 0 C2.15024648 3.22536972 2.73388986 5.55121732 3.5625 9.3125 C3.81128906 10.42238281 4.06007813 11.53226562 4.31640625 12.67578125 C8.8513882 34.72875062 6.09640841 56.23095234 -2 77 C-2.33 77 -2.66 77 -3 77 C-3.40261334 70.82659548 -1.96572714 65.82588561 0 60 C5.08055407 44.75833779 2.89623664 28.99021504 1.24365234 13.34033203 C0.92626845 10.29179294 0.64680724 7.24040736 0.375 4.1875 C0.26285156 2.94033203 0.26285156 2.94033203 0.1484375 1.66796875 C0.09945312 1.11753906 0.05046875 0.56710937 0 0 Z " fill="#DA1534" transform="translate(717,456)"/>
<path d="M0 0 C0.57814453 0.36891357 1.15628906 0.73782715 1.75195312 1.11791992 C1.42195313 1.44791992 1.09195312 1.77791992 0.75195312 2.11791992 C6.19695312 2.61291992 6.19695312 2.61291992 11.75195312 3.11791992 C11.75195312 2.45791992 11.75195312 1.79791992 11.75195312 1.11791992 C15.7339177 0.06387048 18.73390622 0.27693336 22.75195312 1.11791992 C22.75195312 1.44791992 22.75195312 1.77791992 22.75195312 2.11791992 C21.97182861 2.27873047 21.1917041 2.43954102 20.38793945 2.60522461 C16.7787476 3.35303913 13.17162657 4.11043171 9.56445312 4.86791992 C8.33791016 5.12057617 7.11136719 5.37323242 5.84765625 5.63354492 C-1.40312693 7.16405325 -8.41183716 8.99043925 -15.43676758 11.35717773 C-18.18497368 12.10085209 -20.41831399 12.26697261 -23.24804688 12.11791992 C-19.24340238 9.05360792 -15.05511767 6.41964371 -10.74804688 3.80541992 C-9.98878906 3.32524414 -9.22953125 2.84506836 -8.44726562 2.3503418 C-7.71121094 1.90625977 -6.97515625 1.46217773 -6.21679688 1.00463867 C-5.55099609 0.59431396 -4.88519531 0.18398926 -4.19921875 -0.23876953 C-2.24804688 -0.88208008 -2.24804688 -0.88208008 0 0 Z " fill="#DC153C" transform="translate(415.248046875,495.882080078125)"/>
<path d="M0 0 C14.19 0 28.38 0 43 0 C43 0.33 43 0.66 43 1 C41.02 1.33 39.04 1.66 37 2 C37 2.33 37 2.66 37 3 C17.75864001 4.45413787 17.75864001 4.45413787 11 4 C10.67 3.67 10.34 3.34 10 3 C8.31816052 2.76712992 6.6287584 2.58735834 4.9375 2.4375 C3.55884766 2.31181641 3.55884766 2.31181641 2.15234375 2.18359375 C1.08693359 2.09271484 1.08693359 2.09271484 0 2 C0 1.34 0 0.68 0 0 Z " fill="#616162" transform="translate(755,725)"/>
<path d="M0 0 C0.91284256 -0.0033284 1.82568512 -0.0066568 2.76618958 -0.01008606 C4.68486022 -0.01512463 6.60353954 -0.01749534 8.5222168 -0.01733398 C11.45831552 -0.01953221 14.39404516 -0.03775229 17.33007812 -0.05664062 C19.19921747 -0.05957284 21.06835859 -0.06155878 22.9375 -0.0625 C24.25164131 -0.07327827 24.25164131 -0.07327827 25.59233093 -0.08427429 C26.41030655 -0.08119766 27.22828217 -0.07812103 28.07104492 -0.07495117 C28.78717453 -0.07637619 29.50330414 -0.07780121 30.24113464 -0.07926941 C32.59191109 0.20726314 34.22150527 1.00720788 36.26953125 2.16796875 C29.98932482 3.12351245 23.98677376 3.22869634 17.64453125 3.046875 C16.65702881 3.02326401 15.66952637 2.99965302 14.65209961 2.97532654 C11.52440885 2.89927444 8.39700313 2.81500153 5.26953125 2.73046875 C3.13803439 2.67718943 1.00652396 2.62444952 -1.125 2.57226562 C-6.32699599 2.44373934 -11.52878337 2.30847835 -16.73046875 2.16796875 C-16.73046875 1.83796875 -16.73046875 1.50796875 -16.73046875 1.16796875 C-11.11899236 0.21811563 -5.68555252 0.00727225 0 0 Z " fill="#DB1232" transform="translate(474.73046875,490.83203125)"/>
<path d="M0 0 C5.2688427 0.41324256 8.22944438 1.22944438 12 5 C17.03190582 13.24040326 13.36374333 25.97737675 12 35 C11.67 35 11.34 35 11 35 C10.16052045 27.71590054 9.9805324 20.97225449 10.94140625 13.69140625 C11.00902794 10.58531662 10.49043623 8.71729049 9 6 C8.01 5.67 7.02 5.34 6 5 C6 4.67 6 4.34 6 4 C4.35 3.67 2.7 3.34 1 3 C0.67 2.01 0.34 1.02 0 0 Z " fill="#D91B3D" transform="translate(554,169)"/>
<path d="M0 0 C1.8519129 3.15203495 2.23282223 5.39003231 2.15234375 9.02661133 C2.13413574 9.99925934 2.11592773 10.97190735 2.09716797 11.97402954 C2.06510254 12.97259979 2.03303711 13.97117004 2 15 C1.97180176 15.93419769 1.94360352 16.86839539 1.91455078 17.8309021 C1.81323733 20.7462155 1.69086811 23.65997603 1.5625 26.57421875 C1.51810791 27.62406448 1.47371582 28.67391022 1.42797852 29.75556946 C1.2874919 33.06630992 1.14380266 36.37690208 1 39.6875 C0.90343286 41.94986071 0.80707675 44.21223044 0.7109375 46.47460938 C0.47639542 51.98317942 0.23923298 57.49163179 0 63 C-0.33 63 -0.66 63 -1 63 C-1.02322164 55.67175434 -1.04096504 48.34351669 -1.05181217 41.01524162 C-1.05701956 37.61203583 -1.06407808 34.20885531 -1.07543945 30.80566406 C-1.08843353 26.888675 -1.09324595 22.971696 -1.09765625 19.0546875 C-1.10281754 17.83884979 -1.10797882 16.62301208 -1.11329651 15.37033081 C-1.11337204 14.22960114 -1.11344757 13.08887146 -1.11352539 11.91357422 C-1.115746 10.91429901 -1.11796661 9.9150238 -1.12025452 8.88546753 C-0.9939082 5.8538293 -0.55839423 2.97988879 0 0 Z " fill="#DB1C3F" transform="translate(563,201)"/>
<path d="M0 0 C4.4269663 3.70461748 6.60927302 8.51583839 9.1875 13.5625 C9.63802734 14.42552734 10.08855469 15.28855469 10.55273438 16.17773438 C13.8405878 22.52176339 13.8405878 22.52176339 15 26 C15.66 26.33 16.32 26.66 17 27 C18.6875 29.4375 18.6875 29.4375 20 32 C19.67 32.66 19.34 33.32 19 34 C15.05292549 30.50870777 12.66568882 26.44873606 10.0625 21.9375 C9.40435303 20.8071936 9.40435303 20.8071936 8.73291016 19.65405273 C0 4.4663124 0 4.4663124 0 0 Z " fill="#DC1332" transform="translate(586,383)"/>
<path d="M0 0 C1.32 0 2.64 0 4 0 C4 0.66 4 1.32 4 2 C5.07350708 2.1700354 5.07350708 2.1700354 6.16870117 2.34350586 C9.18239155 3.04229119 11.54657834 4.10264512 14.30078125 5.50390625 C15.27724609 5.99697266 16.25371094 6.49003906 17.25976562 6.99804688 C18.26716797 7.51431641 19.27457031 8.03058594 20.3125 8.5625 C21.33923828 9.08263672 22.36597656 9.60277344 23.42382812 10.13867188 C25.9520146 11.42040362 28.477224 12.70766061 31 14 C31 14.99 31 15.98 31 17 C27.15583207 15.52697203 23.50200588 13.80888966 19.82421875 11.9609375 C18.66728516 11.38085938 17.51035156 10.80078125 16.31835938 10.203125 C15.10805083 9.59379386 13.89776465 8.98441831 12.6875 8.375 C11.45777524 7.75762732 10.22795844 7.14043795 8.99804688 6.5234375 C5.99778785 5.01742513 2.99847973 3.50955101 0 2 C0 1.34 0 0.68 0 0 Z " fill="#DD1636" transform="translate(602,519)"/>
<path d="M0 0 C6.27 0 12.54 0 19 0 C19 0.33 19 0.66 19 1 C12.73 1 6.46 1 0 1 C0 0.67 0 0.34 0 0 Z M-9.875 0.875 C-8.91851562 0.88402344 -7.96203125 0.89304687 -6.9765625 0.90234375 C-4.65076475 0.92560173 -2.32552706 0.95827787 0 1 C0 1.33 0 1.66 0 2 C-0.54938232 2.05534912 -1.09876465 2.11069824 -1.66479492 2.16772461 C-4.17262423 2.42181253 -6.68005761 2.67962299 -9.1875 2.9375 C-10.48397461 3.06801758 -10.48397461 3.06801758 -11.80664062 3.20117188 C-15.93020278 3.62774727 -19.93717557 4.16353615 -24 5 C-26.33301986 5.03824623 -28.66711508 5.04574284 -31 5 C-31 4.34 -31 3.68 -31 3 C-23.8668439 1.28020944 -17.19766008 0.74129975 -9.875 0.875 Z " fill="#DF0D2B" transform="translate(501,471)"/>
<path d="M0 0 C8.25 0 16.5 0 25 0 C25 0.66 25 1.32 25 2 C22.49502996 3.25248502 20.79146726 3.11374406 17.9921875 3.09765625 C17.00605469 3.09443359 16.01992187 3.09121094 15.00390625 3.08789062 C13.97136719 3.07951172 12.93882812 3.07113281 11.875 3.0625 C10.31458984 3.05573242 10.31458984 3.05573242 8.72265625 3.04882812 C6.14838038 3.03701952 3.57421854 3.02055075 1 3 C0.67 2.01 0.34 1.02 0 0 Z " fill="#626261" transform="translate(217,644)"/>
<path d="M0 0 C5.32473191 1.08299632 10.44468895 2.4155803 15.625 4.0625 C19.11748255 5.17096587 22.41468777 6.18595164 26.0625 6.5625 C29.29944711 7.04459851 30.51044651 7.98158782 33 10 C21.45798797 9.52008266 10.52020438 6.72060453 0 2 C0 1.34 0 0.68 0 0 Z " fill="#DA1838" transform="translate(335,560)"/>
<path d="M0 0 C0.33 0 0.66 0 1 0 C1.05469515 2.33365969 1.09399808 4.66599828 1.125 7 C1.14820313 8.299375 1.17140625 9.59875 1.1953125 10.9375 C1.14036419 14.37546007 0.39568585 17.36557122 -0.51904297 20.68359375 C-1.56195249 25.7065001 -1.48444498 30.8873113 -1.625 36 C-1.66367187 37.15628906 -1.70234375 38.31257813 -1.7421875 39.50390625 C-1.83580332 42.3357848 -1.92153675 45.16766794 -2 48 C-2.33 48 -2.66 48 -3 48 C-3.61916858 15.89849055 -3.61916858 15.89849055 0 0 Z " fill="#D82646" transform="translate(420,260)"/>
<path d="M0 0 C0.33 0 0.66 0 1 0 C1.33 3.96 1.66 7.92 2 12 C2.33 12 2.66 12 3 12 C4.10087193 19.01805857 4.09733092 25.90565767 4 33 C5.32 33.33 6.64 33.66 8 34 C7.21625 33.95875 6.4325 33.9175 5.625 33.875 C2.83883881 33.71271266 2.83883881 33.71271266 1 36 C-0.03330247 23.98785879 -0.11317227 12.05023529 0 0 Z " fill="#6A6B6B" transform="translate(446,692)"/>
<path d="M0 0 C9.16307654 1.1677084 18.03246811 2.76556514 27 5 C27 5.33 27 5.66 27 6 C22.71 5.67 18.42 5.34 14 5 C14 6.32 14 7.64 14 9 C9.02790438 7.23570801 4.56561939 4.6060834 0 2 C0 1.34 0 0.68 0 0 Z " fill="#DB2141" transform="translate(601,365)"/>
<path d="M0 0 C0.33 0 0.66 0 1 0 C1.43007944 4.75031892 1.85723985 9.50088808 2.28173828 14.25170898 C2.42645036 15.86668934 2.57194941 17.48159938 2.71826172 19.09643555 C2.92884663 21.42218117 3.13656795 23.74816783 3.34375 26.07421875 C3.40937134 26.79212082 3.47499268 27.51002289 3.54260254 28.24967957 C3.86001159 31.84498632 4.07385371 35.39040003 4 39 C3.01 38.67 2.02 38.34 1 38 C1 35.36 1 32.72 1 30 C0.67 30 0.34 30 0 30 C-0.93891428 19.81639123 -0.93891428 10.18360877 0 0 Z " fill="#DB2042" transform="translate(563,270)"/>
<path d="M0 0 C0.33 0 0.66 0 1 0 C1.63594729 12.34177486 2.17327227 24.63991137 2 37 C-2.94892717 30.98964073 -2.15510926 23.44524453 -2 16 C-1.67 16 -1.34 16 -1 16 C-0.67 10.72 -0.34 5.44 0 0 Z " fill="#676768" transform="translate(456,671)"/>
<path d="M0 0 C0.33 0 0.66 0 1 0 C1.66433182 9.34809779 2.1598655 18.62122392 2 28 C1.67 28 1.34 28 1 28 C0.67 32.95 0.34 37.9 0 43 C-0.66 42.67 -1.32 42.34 -2 42 C-1.9278125 40.79988281 -1.855625 39.59976563 -1.78125 38.36328125 C-1.1978939 28.07642144 -0.89907526 17.84666474 -1.03710938 7.54223633 C-1.05878894 5.36156357 -1.03417062 3.1805128 -1 1 C-0.67 0.67 -0.34 0.34 0 0 Z " fill="#6F6E6E" transform="translate(385,645)"/>
<path d="M0 0 C0.66 0 1.32 0 2 0 C3.22869216 8.21858531 2.9054935 16.29254559 2.5625 24.5625 C2.50915672 25.96677388 2.45641764 27.37107084 2.40429688 28.77539062 C2.2754541 32.18386758 2.14052672 35.59198813 2 39 C1.67 39 1.34 39 1 39 C0.28124064 25.9853215 -0.14323814 13.03467078 0 0 Z " fill="#626261" transform="translate(393,662)"/>
<path d="M0 0 C6.93645997 6.50293123 12.58511269 14.21609949 18 22 C13.18579475 21.16677217 11.81953925 18.8377062 9 15 C9 14.34 9 13.68 9 13 C8.34 13 7.68 13 7 13 C5.2734375 11.171875 5.2734375 11.171875 3.375 8.75 C2.74335937 7.96109375 2.11171875 7.1721875 1.4609375 6.359375 C0 4 0 4 0 0 Z " fill="#DB1636" transform="translate(611,424)"/>
<path d="M0 0 C0.66 0 1.32 0 2 0 C2.22786458 2.05078125 2.45572917 4.1015625 2.68359375 6.15234375 C2.81886614 8.01140229 2.81886614 8.01140229 4 9 C4.14115161 11.67058851 4.04247107 14.32432238 4 17 C3.34 17 2.68 17 2 17 C-0.22232361 11.72198142 -1.46632923 7.82911532 -1 2 C-0.67 1.34 -0.34 0.68 0 0 Z " fill="#DD193E" transform="translate(424,328)"/>
<path d="M0 0 C1.875 1.26171875 1.875 1.26171875 3.875 3.26171875 C1.81537148 3.93720453 -0.24784322 4.60176187 -2.3125 5.26171875 C-3.46105469 5.63296875 -4.60960937 6.00421875 -5.79296875 6.38671875 C-8.76820812 7.16802428 -11.07783896 7.44535181 -14.125 7.26171875 C-12.81825696 6.22721384 -11.47435074 5.23999804 -10.125 4.26171875 C-9.4959375 3.80539062 -8.866875 3.3490625 -8.21875 2.87890625 C-7.5278125 2.40710938 -6.836875 1.9353125 -6.125 1.44921875 C-5.465 0.98902344 -4.805 0.52882813 -4.125 0.0546875 C-2.125 -0.73828125 -2.125 -0.73828125 0 0 Z " fill="#DD2145" transform="translate(406.125,500.73828125)"/>
<path d="M0 0 C5.02644862 0.86662907 7.16623756 4.05088832 10.1875 7.9375 C10.71730469 8.60652344 11.24710938 9.27554687 11.79296875 9.96484375 C13 12 13 12 13 16 C7.19794344 10.35475578 7.19794344 10.35475578 5 7 C5 6.34 5 5.68 5 5 C4.360625 4.731875 3.72125 4.46375 3.0625 4.1875 C1 3 1 3 0 0 Z " fill="#D91736" transform="translate(684,406)"/>
<path d="M0 0 C4.62 0 9.24 0 14 0 C13.67 0.99 13.34 1.98 13 3 C9.04 3 5.08 3 1 3 C1 3.66 1 4.32 1 5 C0.34 5 -0.32 5 -1 5 C-0.67 3.35 -0.34 1.7 0 0 Z " fill="#656364" transform="translate(441,644)"/>
<path d="M0 0 C-1.38481179 4.15443538 -3.43998734 4.65008292 -7.25 6.6875 C-8.38953125 7.31011719 -9.5290625 7.93273437 -10.703125 8.57421875 C-13.84356937 9.93234931 -15.64517931 10.33422086 -19 10 C-17.77667897 7.55335795 -16.88755702 7.25662033 -14.47265625 6.0546875 C-13.76302734 5.70019531 -13.05339844 5.34570312 -12.32226562 4.98046875 C-11.57654297 4.61566406 -10.83082031 4.25085938 -10.0625 3.875 C-8.9497168 3.31619141 -8.9497168 3.31619141 -7.81445312 2.74609375 C-2.26694139 0 -2.26694139 0 0 0 Z " fill="#DD1634" transform="translate(448,550)"/>
<path d="M0 0 C4.62 0 9.24 0 14 0 C18.57142857 9.57142857 18.57142857 9.57142857 18 14 C16 13 16 13 15.21875 11.00390625 C14.9815625 10.19824219 14.744375 9.39257812 14.5 8.5625 C13.42683488 4.90617965 13.42683488 4.90617965 11 2 C8.33757179 1.53709779 8.33757179 1.53709779 5.375 1.375 C3.87066406 1.26285156 3.87066406 1.26285156 2.3359375 1.1484375 C1.56507813 1.09945312 0.79421875 1.05046875 0 1 C0 0.67 0 0.34 0 0 Z " fill="#686665" transform="translate(386,644)"/>
<path d="M0 0 C0.33 0.66 0.66 1.32 1 2 C-0.3649453 4.44268953 -1.77020178 6.73629683 -3.3125 9.0625 C-3.93801758 10.03799805 -3.93801758 10.03799805 -4.57617188 11.03320312 C-7.72800434 15.86400217 -7.72800434 15.86400217 -10 17 C-9.42871757 12.71146888 -7.90905605 9.86008623 -5.5625 6.25 C-4.94503906 5.28578125 -4.32757812 4.3215625 -3.69140625 3.328125 C-2 1 -2 1 0 0 Z " fill="#DA1A36" transform="translate(709,541)"/>
<path d="M0 0 C1.485 0.99 1.485 0.99 3 2 C2.67 2.66 2.34 3.32 2 4 C2.66 4 3.32 4 4 4 C8.59225513 14.37357631 8.59225513 14.37357631 8 20 C5.08380209 16.59634379 3.7761973 13.08587691 2.3125 8.875 C1.87550781 7.63492187 1.43851563 6.39484375 0.98828125 5.1171875 C0 2 0 2 0 0 Z " fill="#DC1B3B" transform="translate(541,333)"/>
<path d="M0 0 C2.97 0.495 2.97 0.495 6 1 C5.69024532 2.77131561 5.37709575 4.54203778 5.0625 6.3125 C4.88847656 7.29863281 4.71445312 8.28476562 4.53515625 9.30078125 C4 12 4 12 3 15 C2.34 15 1.68 15 1 15 C1 14.01 1 13.02 1 12 C0.34 12 -0.32 12 -1 12 C-1 11.34 -1 10.68 -1 10 C-0.01 10 0.98 10 2 10 C2.2165625 8.576875 2.2165625 8.576875 2.4375 7.125 C3 4 3 4 4 2 C2.68 2 1.36 2 0 2 C0 1.34 0 0.68 0 0 Z " fill="#676564" transform="translate(626,646)"/>
<path d="M0 0 C0.84755859 0.09345703 1.69511719 0.18691406 2.56835938 0.28320312 C3.44943359 0.38697266 4.33050781 0.49074219 5.23828125 0.59765625 C6.13095703 0.69755859 7.02363281 0.79746094 7.94335938 0.90039062 C10.14656346 1.14780927 12.34889906 1.40127904 14.55078125 1.66015625 C14.55078125 1.99015625 14.55078125 2.32015625 14.55078125 2.66015625 C6.63078125 2.66015625 -1.28921875 2.66015625 -9.44921875 2.66015625 C-6.39549663 -0.39356587 -4.07904024 -0.46539385 0 0 Z " fill="#3F4040" transform="translate(776.44921875,717.33984375)"/>
<path d="M0 0 C9.94396878 -0.25068829 19.1776452 0.3049249 29 2 C29 2.33 29 2.66 29 3 C25.7 3.33 22.4 3.66 19 4 C19 3.67 19 3.34 19 3 C12.73 2.34 6.46 1.68 0 1 C0 0.67 0 0.34 0 0 Z " fill="#D92F50" transform="translate(525,166)"/>
<path d="M0 0 C0.33 0 0.66 0 1 0 C1.27018742 7.46017494 1.26429585 13.60355623 -3 20 C-2.22095672 6.3667426 -2.22095672 6.3667426 0 0 Z " fill="#DB1232" transform="translate(430,300)"/>
<path d="M0 0 C3.96 0 7.92 0 12 0 C11.67 0.66 11.34 1.32 11 2 C8.0170339 2.59772099 5.03669195 2.74337815 2 3 C1.67 7.29 1.34 11.58 1 16 C0.67 16 0.34 16 0 16 C0 10.72 0 5.44 0 0 Z " fill="#494747" transform="translate(386,645)"/>
<path d="M0 0 C6.02770138 0.47587116 10.76678289 3.19722957 16 6 C16 6.99 16 7.98 16 9 C10.0942118 7.44584521 5.02261107 4.40465533 0 1 C0 0.67 0 0.34 0 0 Z " fill="#DA1939" transform="translate(664,554)"/>
<path d="M0 0 C-1.31275643 2.62551287 -2.3243582 2.69506505 -5.0625 3.625 C-9.55063506 5.0563123 -13.31552667 5.25551673 -18 5 C-14.81886649 2.87924433 -12.07995044 1.93982824 -8.4375 0.8125 C-7.28121094 0.44769531 -6.12492187 0.08289063 -4.93359375 -0.29296875 C-2 -1 -2 -1 0 0 Z " fill="#DD1E3E" transform="translate(450,532)"/>
<path d="M0 0 C5.03611017 -0.61415978 7.70610592 0.56362791 11.5859375 3.5546875 C13.53068306 5.54241086 13.92163689 7.25729109 14 10 C13.57589844 9.60167969 13.15179688 9.20335937 12.71484375 8.79296875 C8.67232555 5.14137539 5.11349698 2.87842746 0 1 C0 0.67 0 0.34 0 0 Z " fill="#DC1B3D" transform="translate(496,218)"/>
<path d="M0 0 C0 0.33 0 0.66 0 1 C-8.14684214 1.6976874 -15.88303369 2.28162626 -24 1 C-24 0.67 -24 0.34 -24 0 C-15.82586896 -1.18896451 -8.15682178 -1.3883952 0 0 Z " fill="#3A3C3C" transform="translate(792,727)"/>
<path d="M0 0 C2.15307714 3.22961572 2.77234869 5.61127654 3.625 9.375 C3.88539063 10.49648438 4.14578125 11.61796875 4.4140625 12.7734375 C4.93013392 15.6152708 5.11846848 18.12444684 5 21 C4.67 19.68 4.34 18.36 4 17 C3.34 17 2.68 17 2 17 C1.34 11.39 0.68 5.78 0 0 Z " fill="#D52442" transform="translate(717,456)"/>
<path d="M0 0 C4.94515667 2.62711448 8.87775489 6.26645294 13 10 C12.01 10.33 11.02 10.66 10 11 C8.02734375 9.70703125 8.02734375 9.70703125 5.9375 7.8125 C5.24527344 7.20019531 4.55304687 6.58789062 3.83984375 5.95703125 C2.04561609 4.04852157 1.0243473 2.39368203 0 0 Z " fill="#DA1837" transform="translate(671,393)"/>
<path d="M0 0 C0.33 0 0.66 0 1 0 C1.5321441 2.08047297 2.05031786 4.16452293 2.5625 6.25 C2.85253906 7.41015625 3.14257812 8.5703125 3.44140625 9.765625 C3.95179964 12.72090983 4.02996165 14.24434101 3 17 C0.52776237 14.52776237 0.41990229 13.03193317 -0.1875 9.625 C-0.45626953 8.19027344 -0.45626953 8.19027344 -0.73046875 6.7265625 C-0.98745577 4.12689671 -0.81960325 2.45299695 0 0 Z " fill="#DB1836" transform="translate(570,329)"/>
<path d="M0 0 C0.33 0.66 0.66 1.32 1 2 C3.97 2 6.94 2 10 2 C10 1.34 10 0.68 10 0 C10.66 0 11.32 0 12 0 C12.33 1.32 12.66 2.64 13 4 C10.47524538 5.26237731 8.68799534 5.09856404 5.875 5.0625 C4.96492187 5.05347656 4.05484375 5.04445313 3.1171875 5.03515625 C2.41851562 5.02355469 1.71984375 5.01195312 1 5 C0.67 3.35 0.34 1.7 0 0 Z " fill="#4E4E4E" transform="translate(173,724)"/>
<path d="M0 0 C0.66 0 1.32 0 2 0 C2.33 1.98 2.66 3.96 3 6 C-0.96 6 -4.92 6 -9 6 C-9 5.34 -9 4.68 -9 4 C-6.03 4 -3.06 4 0 4 C0 2.68 0 1.36 0 0 Z " fill="#464746" transform="translate(553,722)"/>
<path d="M0 0 C2.67438936 2.38335287 4.15158012 4.87036148 5.75 8.0625 C6.19859375 8.94035156 6.6471875 9.81820313 7.109375 10.72265625 C7.40328125 11.47417969 7.6971875 12.22570312 8 13 C7.67 13.66 7.34 14.32 7 15 C4.69145075 12.87666387 3.21587424 10.86387158 1.8125 8.0625 C1.29623047 7.05896484 1.29623047 7.05896484 0.76953125 6.03515625 C0 4 0 4 0 0 Z " fill="#DB1637" transform="translate(705,431)"/>
<path d="M0 0 C-3.10275737 2.06850491 -5.4099217 2.78558082 -9 3.6875 C-10.051875 3.95949219 -11.10375 4.23148438 -12.1875 4.51171875 C-15 5 -15 5 -18 4 C-12.46608665 0.02249978 -6.64045804 -0.20751431 0 0 Z " fill="#DF0E2B" transform="translate(515,169)"/>
<path d="M0 0 C6.1105424 -0.11269443 11.95170514 0.10395632 18 1 C14.23833409 3.50777727 12.47445973 3.2934072 8 3 C5.28490659 2.44938665 2.67100888 1.74975688 0 1 C0 0.67 0 0.34 0 0 Z " fill="#4B4C4B" transform="translate(593,718)"/>
<path d="M0 0 C3.30081791 1.61897259 6.52557433 3.35924309 9.75 5.125 C11.22726562 5.93324219 11.22726562 5.93324219 12.734375 6.7578125 C13.48203125 7.16773438 14.2296875 7.57765625 15 8 C12.43992191 8.95272312 11.31101605 9.11623296 8.7109375 8.14453125 C7.94007813 7.70496094 7.16921875 7.26539063 6.375 6.8125 C5.59898437 6.38582031 4.82296875 5.95914063 4.0234375 5.51953125 C1.81112866 3.85816419 1.0127377 2.54273391 0 0 Z " fill="#555454" transform="translate(588,679)"/>
<path d="M0 0 C3.63 0 7.26 0 11 0 C12.35439668 2.70879335 12.06501451 5.00933268 12 8 C10 5 10 5 9 3 C6.87423218 2.53348793 6.87423218 2.53348793 4.4375 2.375 C3.61121094 2.30023437 2.78492188 2.22546875 1.93359375 2.1484375 C1.29550781 2.09945312 0.65742188 2.05046875 0 2 C0 1.34 0 0.68 0 0 Z " fill="#505050" transform="translate(148,645)"/>
<path d="M0 0 C0.66 0.66 1.32 1.32 2 2 C-2.455 7.94 -2.455 7.94 -7 14 C-7.33 12.68 -7.66 11.36 -8 10 C-6.34765625 7.421875 -6.34765625 7.421875 -4.0625 4.75 C-2.93521484 3.41195313 -2.93521484 3.41195313 -1.78515625 2.046875 C-1.19605469 1.37140625 -0.60695313 0.6959375 0 0 Z " fill="#DA1737" transform="translate(359,487)"/>
<path d="M0 0 C4.51650194 0.53135317 7.42058156 2.23408575 11 5 C11.33 5.99 11.66 6.98 12 8 C7.44328408 6.48109469 3.68276708 4.04597738 0 1 C0 0.67 0 0.34 0 0 Z " fill="#DB1939" transform="translate(315,549)"/>
<path d="M0 0 C-1.15173355 2.46800047 -2.04783565 4.04783565 -4 6 C-6.625 6.125 -6.625 6.125 -9 6 C-9.33 5.34 -9.66 4.68 -10 4 C-8.71086513 3.32845067 -7.41859796 2.66291141 -6.125 2 C-5.40570313 1.62875 -4.68640625 1.2575 -3.9453125 0.875 C-2 0 -2 0 0 0 Z " fill="#DB2542" transform="translate(493,512)"/>
<path d="M0 0 C7.59 0.33 15.18 0.66 23 1 C23 1.33 23 1.66 23 2 C19.73063506 2.25485425 16.45983259 2.47442831 13.1875 2.6875 C12.25873047 2.76033203 11.32996094 2.83316406 10.37304688 2.90820312 C9.0340332 2.99038086 9.0340332 2.99038086 7.66796875 3.07421875 C6.84578857 3.13182373 6.0236084 3.18942871 5.17651367 3.2487793 C3 3 3 3 0 0 Z " fill="#DD2D52" transform="translate(647,493)"/>
<path d="M0 0 C0.33 0 0.66 0 1 0 C1.99939172 7.22533204 1.96290189 12.95664616 0 20 C-0.33 20 -0.66 20 -1 20 C-1.18451025 6.3667426 -1.18451025 6.3667426 0 0 Z " fill="#4B4D4C" transform="translate(696,655)"/>
<path d="M0 0 C2.65276917 0.38144393 3.81830943 0.81790113 5.73828125 2.7421875 C6.25777344 3.44601562 6.77726563 4.14984375 7.3125 4.875 C8.11107422 5.92300781 8.11107422 5.92300781 8.92578125 6.9921875 C9.28027344 7.65476562 9.63476562 8.31734375 10 9 C9.67 9.99 9.34 10.98 9 12 C7.49707257 10.18992669 5.99772829 8.37687764 4.5 6.5625 C3.6646875 5.55316406 2.829375 4.54382813 1.96875 3.50390625 C0 1 0 1 0 0 Z " fill="#DC1435" transform="translate(577,406)"/>
<path d="M0 0 C0.33 1.32 0.66 2.64 1 4 C-2.81756824 5.37432457 -6.07255329 4.67975039 -10 4 C-9.67 3.01 -9.34 2.02 -9 1 C-6.03 1.33 -3.06 1.66 0 2 C0 1.34 0 0.68 0 0 Z " fill="#4A4B4B" transform="translate(500,724)"/>
<path d="M0 0 C2.14208427 3.2131264 2.59687808 5.21065397 3 9 C2.67 9.66 2.34 10.32 2 11 C-0.31 11 -2.62 11 -5 11 C-5 10.67 -5 10.34 -5 10 C-3.35 10 -1.7 10 0 10 C-0.185625 8.72125 -0.37125 7.4425 -0.5625 6.125 C-1.125 2.25 -1.125 2.25 0 0 Z " fill="#606060" transform="translate(181,715)"/>
<path d="M0 0 C3.875 3.75 3.875 3.75 5 6 C7.12576782 6.46651207 7.12576782 6.46651207 9.5625 6.625 C10.38878906 6.69976563 11.21507812 6.77453125 12.06640625 6.8515625 C12.70449219 6.90054688 13.34257813 6.94953125 14 7 C14 7.33 14 7.66 14 8 C12.741875 8.185625 11.48375 8.37125 10.1875 8.5625 C9.12595703 8.71912109 9.12595703 8.71912109 8.04296875 8.87890625 C6 9 6 9 3 8 C0.92469613 5.07920195 0 3.62453269 0 0 Z " fill="#4A4B4A" transform="translate(874,720)"/>
<path d="M0 0 C4.23431576 3.60700972 6.4692099 8.14586161 9 13 C8.01 13.495 8.01 13.495 7 14 C5.82508418 12.23462904 4.66031316 10.46250287 3.5 8.6875 C2.8503125 7.70136719 2.200625 6.71523438 1.53125 5.69921875 C0 3 0 3 0 0 Z " fill="#525251" transform="translate(240,696)"/>
<path d="M0 0 C1.09570312 0.10183594 2.19140625 0.20367188 3.3203125 0.30859375 C4.16335938 0.39238281 5.00640625 0.47617187 5.875 0.5625 C5.875 1.2225 5.875 1.8825 5.875 2.5625 C4.10450311 2.61660687 2.33353151 2.65534119 0.5625 2.6875 C-0.91669922 2.72230469 -0.91669922 2.72230469 -2.42578125 2.7578125 C-5.125 2.5625 -5.125 2.5625 -8.125 0.5625 C-5.28943413 -0.85528293 -3.1341294 -0.30007622 0 0 Z " fill="#565454" transform="translate(613.125,652.4375)"/>
<path d="M0 0 C1.46484375 1.23697917 2.9296875 2.47395833 4.39453125 3.7109375 C5.8655046 4.89201099 7.43037794 5.95358529 9 7 C6 8 6 8 3.95703125 7.22265625 C3.24933594 6.83980469 2.54164063 6.45695312 1.8125 6.0625 C1.09707031 5.68222656 0.38164063 5.30195313 -0.35546875 4.91015625 C-0.89816406 4.60980469 -1.44085937 4.30945313 -2 4 C-1.34 2.68 -0.68 1.36 0 0 Z " fill="#DD2346" transform="translate(639,457)"/>
<path d="M0 0 C4.20969919 1.50346399 5.91860139 4.14555814 8 8 C7.60546875 10.1953125 7.60546875 10.1953125 7 12 C5.83061933 10.18924982 4.66456267 8.37635257 3.5 6.5625 C2.8503125 5.55316406 2.200625 4.54382813 1.53125 3.50390625 C0 1 0 1 0 0 Z " fill="#545555" transform="translate(259,709)"/>
<path d="M0 0 C0.33 0 0.66 0 1 0 C1 5.61 1 11.22 1 17 C-0.98 17.99 -0.98 17.99 -3 19 C-2.690625 18.0925 -2.38125 17.185 -2.0625 16.25 C-0.52310987 10.95493464 -0.34179698 5.47774637 0 0 Z " fill="#DE3053" transform="translate(688,466)"/>
<path d="M0 0 C0.33 0.99 0.66 1.98 1 3 C-0.43359375 5.04296875 -0.43359375 5.04296875 -2.4375 7.1875 C-3.09621094 7.90292969 -3.75492187 8.61835938 -4.43359375 9.35546875 C-4.95050781 9.89816406 -5.46742188 10.44085938 -6 11 C-6.33 10.01 -6.66 9.02 -7 8 C-5.56640625 5.95703125 -5.56640625 5.95703125 -3.5625 3.8125 C-2.90378906 3.09707031 -2.24507813 2.38164062 -1.56640625 1.64453125 C-1.04949219 1.10183594 -0.53257812 0.55914062 0 0 Z " fill="#DB1535" transform="translate(412,429)"/>
<path d="M0 0 C0.33 0.99 0.66 1.98 1 3 C-0.11878383 4.17262904 -1.24523051 5.33795138 -2.375 6.5 C-3.00148438 7.1496875 -3.62796875 7.799375 -4.2734375 8.46875 C-6 10 -6 10 -8 10 C-7.44449305 6.40094092 -6.25112752 5.00090201 -3.4375 2.75 C-2.79683594 2.22921875 -2.15617187 1.7084375 -1.49609375 1.171875 C-1.00238281 0.78515625 -0.50867188 0.3984375 0 0 Z " fill="#DE1330" transform="translate(407,396)"/>
<path d="M0 0 C0.33 0 0.66 0 1 0 C0.67 6.27 0.34 12.54 0 19 C-0.33 19 -0.66 19 -1 19 C-1.22114415 16.20880221 -1.42743301 13.4178788 -1.625 10.625 C-1.68945312 9.8309375 -1.75390625 9.036875 -1.8203125 8.21875 C-1.96058587 6.14971776 -1.98758237 4.07374464 -2 2 C-1.34 1.34 -0.68 0.68 0 0 Z " fill="#D8294E" transform="translate(428,317)"/>
<path d="M0 0 C0.66 0 1.32 0 2 0 C0.68938409 4.23429756 -0.94356259 8.07407404 -3 12 C-3.33 12 -3.66 12 -4 12 C-3.53680089 7.27536912 -2.90108294 3.82942948 0 0 Z " fill="#DB1838" transform="translate(448,253)"/>
<path d="M0 0 C6.93 0 13.86 0 21 0 C21 0.33 21 0.66 21 1 C15.41397525 1.73259341 10.43606841 2.08426685 4.8125 1.5 C3.46091797 1.36078125 3.46091797 1.36078125 2.08203125 1.21875 C1.39496094 1.1465625 0.70789063 1.074375 0 1 C0 0.67 0 0.34 0 0 Z " fill="#4E4F4E" transform="translate(755,726)"/>
<path d="M0 0 C0.99 0.33 1.98 0.66 3 1 C1.41641358 4.16717283 0.54736301 5.73268318 -2.6875 7.3125 C-3.450625 7.539375 -4.21375 7.76625 -5 8 C-5 5 -5 5 -2.5 2.3125 C-1.675 1.549375 -0.85 0.78625 0 0 Z " fill="#565655" transform="translate(620,711)"/>
<path d="M0 0 C0.33 0 0.66 0 1 0 C1.22577402 5.4185766 0.46670113 9.77487721 -1 15 C-2.80411967 12.24075815 -3.0127245 11.11027897 -2.625 7.75 C-2.41875 6.8425 -2.2125 5.935 -2 5 C-1.34 5 -0.68 5 0 5 C0 3.35 0 1.7 0 0 Z " fill="#D72343" transform="translate(721,504)"/>
<path d="M0 0 C0.99 0.33 1.98 0.66 3 1 C3.765625 2.9609375 3.765625 2.9609375 4.25 5.375 C4.42015625 6.16648437 4.5903125 6.95796875 4.765625 7.7734375 C5 10 5 10 4 13 C3.32942113 11.2097939 2.6636531 9.41778511 2 7.625 C1.62875 6.62726563 1.2575 5.62953125 0.875 4.6015625 C0 2 0 2 0 0 Z " fill="#DC0C2A" transform="translate(713,450)"/>
<path d="M0 0 C0.66 0 1.32 0 2 0 C2.5345256 1.24420647 3.05208611 2.49570936 3.5625 3.75 C3.85253906 4.44609375 4.14257812 5.1421875 4.44140625 5.859375 C5.07831803 8.30012784 4.80248831 9.6403655 4 12 C3.32645501 10.56570999 2.66140299 9.12742943 2 7.6875 C1.62875 6.88699219 1.2575 6.08648437 0.875 5.26171875 C0 3 0 3 0 0 Z " fill="#DD102E" transform="translate(683,446)"/>
<path d="M0 0 C0.33 0.66 0.66 1.32 1 2 C-0.21484375 4.6015625 -0.21484375 4.6015625 -1.9375 7.625 C-2.78634766 9.12933594 -2.78634766 9.12933594 -3.65234375 10.6640625 C-4.09707031 11.43492187 -4.54179687 12.20578125 -5 13 C-5.33 13 -5.66 13 -6 13 C-6.20086443 9.28400809 -6.1519437 8.22791555 -4 5 C-3.34 5 -2.68 5 -2 5 C-2 3.68 -2 2.36 -2 1 C-1.34 0.67 -0.68 0.34 0 0 Z " fill="#DB1D3B" transform="translate(457,365)"/>
<path d="M0 0 C0 3.38878512 -0.64361198 4.39757217 -2.4375 7.1875 C-2.88996094 7.90292969 -3.34242188 8.61835938 -3.80859375 9.35546875 C-4.20175781 9.89816406 -4.59492188 10.44085938 -5 11 C-5.33 11 -5.66 11 -6 11 C-6 9.35 -6 7.7 -6 6 C-5.34 6 -4.68 6 -4 6 C-3.71125 5.195625 -3.4225 4.39125 -3.125 3.5625 C-2 1 -2 1 0 0 Z " fill="#DA1533" transform="translate(446,346)"/>
<path d="M0 0 C0.66 0 1.32 0 2 0 C1.54917531 1.46067199 1.08906463 2.91848032 0.625 4.375 C0.36976563 5.18710937 0.11453125 5.99921875 -0.1484375 6.8359375 C-1 9 -1 9 -3 11 C-4 8 -4 8 -3.22265625 5.95703125 C-2.83980469 5.24933594 -2.45695312 4.54164063 -2.0625 3.8125 C-1.68222656 3.09707031 -1.30195313 2.38164062 -0.91015625 1.64453125 C-0.60980469 1.10183594 -0.30945313 0.55914062 0 0 Z " fill="#DB1737" transform="translate(465,345)"/>
<path d="M0 0 C2.9555377 2.75170751 5.11563315 5.41970299 7 9 C7 9.66 7 10.32 7 11 C6.34 11 5.68 11 5 11 C3.7109375 9.35546875 3.7109375 9.35546875 2.375 7.1875 C1.92898437 6.47980469 1.48296875 5.77210938 1.0234375 5.04296875 C0 3 0 3 0 0 Z " fill="#535353" transform="translate(249,710)"/>
<path d="M0 0 C3.63 0 7.26 0 11 0 C8.2134483 2.7865517 5.84575573 2.65662895 2 3 C1.34 2.67 0.68 2.34 0 2 C0 1.34 0 0.68 0 0 Z " fill="#777676" transform="translate(415,709)"/>
<path d="M0 0 C4.37934119 0.51958285 8.68803391 1.05675742 13 2 C9.00439392 4.83022097 5.57262677 3.76210446 1 3 C0.67 2.01 0.34 1.02 0 0 Z " fill="#DF2446" transform="translate(575,477)"/>
<path d="M0 0 C3.96 0.33 7.92 0.66 12 1 C12 1.33 12 1.66 12 2 C6.06 2.495 6.06 2.495 0 3 C0 2.01 0 1.02 0 0 Z " fill="#DC2446" transform="translate(544,472)"/>
<path d="M0 0 C2.31 0.33 4.62 0.66 7 1 C7 1.33 7 1.66 7 2 C5.35 2 3.7 2 2 2 C2.04125 2.94875 2.0825 3.8975 2.125 4.875 C2 8 2 8 0 10 C0 6.7 0 3.4 0 0 Z " fill="#666767" transform="translate(775,680)"/>
<path d="M0 0 C2.1875 -0.3125 2.1875 -0.3125 5 0 C7.8125 2.5 7.8125 2.5 10 5 C5.75354935 5 3.61475228 3.18249194 0 1 C0 0.67 0 0.34 0 0 Z " fill="#DD1D3E" transform="translate(635,537)"/>
<path d="M0 0 C2.22825644 2.22825644 2.69239369 3.65761628 3.625 6.625 C4.01558594 7.85089844 4.01558594 7.85089844 4.4140625 9.1015625 C4.60742188 9.72804688 4.80078125 10.35453125 5 11 C4.01 11 3.02 11 2 11 C0.19769832 7.17010894 -0.19622241 4.21878192 0 0 Z " fill="#DC1C3C" transform="translate(583,373)"/>
<path d="M0 0 C2.9555377 2.75170751 5.11563315 5.41970299 7 9 C7 9.66 7 10.32 7 11 C6.34 11 5.68 11 5 11 C3.7109375 9.35546875 3.7109375 9.35546875 2.375 7.1875 C1.92898438 6.47980469 1.48296875 5.77210938 1.0234375 5.04296875 C0 3 0 3 0 0 Z " fill="#525353" transform="translate(857,694)"/>
<path d="M0 0 C2.51236985 2.40313638 3.95013095 3.78319518 4.09765625 7.3828125 C4.08605469 8.28773438 4.07445312 9.19265625 4.0625 10.125 C4.05347656 11.03507813 4.04445313 11.94515625 4.03515625 12.8828125 C4.02355469 13.58148437 4.01195312 14.28015625 4 15 C3.67 15 3.34 15 3 15 C2.814375 13.14375 2.814375 13.14375 2.625 11.25 C2.23914672 8.07929264 1.55997304 5.80795147 0 3 C0 2.01 0 1.02 0 0 Z " fill="#4B4C4B" transform="translate(870,658)"/>
<path d="M0 0 C3.91211733 1.15585285 6.8745041 2.35534962 10 5 C7 6 7 6 3.875 4.75 C1 3 1 3 0 0 Z " fill="#DD1130" transform="translate(326,555)"/>
<path d="M0 0 C2.1875 0.3125 2.1875 0.3125 4 1 C4 1.99 4 2.98 4 4 C2.1875 4.625 2.1875 4.625 0 5 C-0.99 4.34 -1.98 3.68 -3 3 C-1.75 1.4375 -1.75 1.4375 0 0 Z " fill="#DC0D2F" transform="translate(408,498)"/>
<path d="M0 0 C0.66 0.33 1.32 0.66 2 1 C1.71125 1.680625 1.4225 2.36125 1.125 3.0625 C-0.12597355 6.32893093 -1.07447955 9.62846123 -2 13 C-2.33 13 -2.66 13 -3 13 C-3.27429625 7.60550707 -3.36055646 4.48074195 0 0 Z " fill="#D42543" transform="translate(278,484)"/>
<path d="M0 0 C3 1 3 1 4.75 3.3125 C6.14972335 6.32190521 5.95287489 6.98041673 5 10 C4.16121545 8.71186658 3.32913217 7.41936744 2.5 6.125 C2.0359375 5.40570313 1.571875 4.68640625 1.09375 3.9453125 C0 2 0 2 0 0 Z " fill="#DD1939" transform="translate(567,390)"/>
<path d="M0 0 C0.99 0.33 1.98 0.66 3 1 C4.23076923 7.4 4.23076923 7.4 3.0625 10.4375 C2.711875 10.953125 2.36125 11.46875 2 12 C0.86235649 7.73383684 0 4.43513689 0 0 Z " fill="#DD1F40" transform="translate(526,278)"/>
<path d="M0 0 C0.66 0 1.32 0 2 0 C1.33989524 2.84550012 0.48275034 5.52325999 -0.5625 8.25 C-0.83191406 8.95640625 -1.10132813 9.6628125 -1.37890625 10.390625 C-1.68634766 11.18726563 -1.68634766 11.18726563 -2 12 C-2.33 12 -2.66 12 -3 12 C-3.34833144 7.12335991 -2.41685712 4.22949995 0 0 Z " fill="#DD0F2D" transform="translate(432,229)"/>
<path d="M0 0 C0.66 0 1.32 0 2 0 C1.54917531 1.46067199 1.08906463 2.91848032 0.625 4.375 C0.36976563 5.18710937 0.11453125 5.99921875 -0.1484375 6.8359375 C-1 9 -1 9 -3 11 C-2.53199289 6.94393835 -2.12046792 3.53411321 0 0 Z " fill="#60605F" transform="translate(429,697)"/>
<path d="M0 0 C1.90318884 2.85478326 2.4619099 4.41941308 3.125 7.6875 C3.29257812 8.49574219 3.46015625 9.30398438 3.6328125 10.13671875 C3.75398437 10.75160156 3.87515625 11.36648438 4 12 C3.67 11.34 3.34 10.68 3 10 C2.34 10 1.68 10 1 10 C-1.125 3.375 -1.125 3.375 0 0 Z " fill="#636263" transform="translate(540,679)"/>
<path d="M0 0 C0.33 0 0.66 0 1 0 C1.13277344 0.60328125 1.26554688 1.2065625 1.40234375 1.828125 C1.57894531 2.62734375 1.75554688 3.4265625 1.9375 4.25 C2.11152344 5.03890625 2.28554688 5.8278125 2.46484375 6.640625 C2.947556 8.76878703 3.46163178 10.88532842 4 13 C1.4375 11 1.4375 11 -1 8 C-1.14963532 5.10883176 -0.63149193 2.86600184 0 0 Z " fill="#646463" transform="translate(595,662)"/>
<path d="M0 0 C4.7517398 0.43197635 6.92000054 1.32769295 10 5 C5.75354935 5 3.61475228 3.18249194 0 1 C0 0.67 0 0.34 0 0 Z " fill="#DB1A39" transform="translate(654,548)"/>
<path d="M0 0 C0 0.33 0 0.66 0 1 C-1.58086048 1.36504603 -3.16483907 1.71660506 -4.75 2.0625 C-5.63171875 2.25972656 -6.5134375 2.45695312 -7.421875 2.66015625 C-9.98679028 2.99825872 -11.57091639 2.81158635 -14 2 C-13.01 2 -12.02 2 -11 2 C-11 1.34 -11 0.68 -11 0 C-7.18243176 -1.37432457 -3.92744671 -0.67975039 0 0 Z " fill="#DC264A" transform="translate(438,497)"/>
<path d="M0 0 C0.33 0.99 0.66 1.98 1 3 C-4.94 2.01 -4.94 2.01 -11 1 C-6.46780033 -1.26609984 -4.82227075 -0.92735976 0 0 Z " fill="#DB2144" transform="translate(541,496)"/>
<path d="M0 0 C0.99 0.33 1.98 0.66 3 1 C0.69 3.31 -1.62 5.62 -4 8 C-4.33 7.01 -4.66 6.02 -5 5 C-3.35 3.35 -1.7 1.7 0 0 Z " fill="#DC1B39" transform="translate(381,463)"/>
<path d="M0 0 C0 0.33 0 0.66 0 1 C-1.98 1.33 -3.96 1.66 -6 2 C-6 2.66 -6 3.32 -6 4 C-6.99 3.67 -7.98 3.34 -9 3 C-9.33 2.01 -9.66 1.02 -10 0 C-6.7169902 -1.6415049 -3.57454967 -0.51888624 0 0 Z " fill="#E00629" transform="translate(623,370)"/>
<path d="M0 0 C0.66 0.33 1.32 0.66 2 1 C0.06745228 3.0245738 -1.63158688 4.42105792 -4 6 C-6.1875 5.625 -6.1875 5.625 -8 5 C-6.71475739 4.13619741 -5.42157581 3.28419631 -4.125 2.4375 C-3.04605469 1.72400391 -3.04605469 1.72400391 -1.9453125 0.99609375 C-1.30335938 0.66738281 -0.66140625 0.33867187 0 0 Z " fill="#D91D3C" transform="translate(482,178)"/>
<path d="M0 0 C3.14958831 3.42346555 3.56179109 6.44262737 4 11 C1.9656541 9.58480285 1.09589607 8.45017877 0.578125 6.01953125 C0.33726048 4.01823046 0.16467259 2.0090056 0 0 Z " fill="#515251" transform="translate(538,707)"/>
<path d="M0 0 C0.66 0 1.32 0 2 0 C3.60355101 3.50776784 4.22036864 6.14354879 4 10 C2 7 2 7 2 5 C1.34 5 0.68 5 0 5 C0 3.35 0 1.7 0 0 Z " fill="#525252" transform="translate(415,685)"/>
<path d="M0 0 C3 1 3 1 5 4 C5.07905064 6.33199388 5.08798769 8.66832622 5 11 C0 3.5 0 3.5 0 0 Z " fill="#515150" transform="translate(260,653)"/>
<path d="M0 0 C0.66 0.66 1.32 1.32 2 2 C2.66 1.67 3.32 1.34 4 1 C4.33 3.31 4.66 5.62 5 8 C4.34 8 3.68 8 3 8 C3 7.01 3 6.02 3 5 C2.01 5 1.02 5 0 5 C0 3.35 0 1.7 0 0 Z " fill="#656464" transform="translate(528,650)"/>
<path d="M0 0 C-0.33 0.66 -0.66 1.32 -1 2 C-3.75078884 2.91692961 -5.35948913 3.10886083 -8.1875 3.0625 C-10.0746875 3.0315625 -10.0746875 3.0315625 -12 3 C-7.85930434 0.85826087 -4.68855996 -0.12671784 0 0 Z " fill="#D51C3C" transform="translate(695,562)"/>
<path d="M0 0 C8.57142857 0.85714286 8.57142857 0.85714286 12 3 C8.33461636 3.94252722 5.63170285 4.17784957 2 3 C1.34 2.01 0.68 1.02 0 0 Z " fill="#DE2445" transform="translate(588,480)"/>
<path d="M0 0 C2.62901288 1.52206009 4.84365964 2.84365964 7 5 C6.67 5.99 6.34 6.98 6 8 C1.3125 4.38671875 1.3125 4.38671875 0 3 C0 2.01 0 1.02 0 0 Z " fill="#E01536" transform="translate(638,389)"/>
<path d="M0 0 C0 3.99904969 -1.72586967 5.80200422 -4 9 C-4.8125 7.3125 -4.8125 7.3125 -5 5 C-2.5625 2.25 -2.5625 2.25 0 0 Z " fill="#DB1E3D" transform="translate(444,388)"/>
<path d="M0 0 C2.72426311 2.35277269 3.8141763 4.62496331 5 8 C4.34 8.66 3.68 9.32 3 10 C0.96564469 6.27034861 0 4.33094958 0 0 Z " fill="#DC1232" transform="translate(554,363)"/>
<path d="M0 0 C2.70272533 2.87164566 3.94791837 4.30991841 4.25 8.3125 C4.1675 9.199375 4.085 10.08625 4 11 C2 10 2 10 0.875 7.1875 C0 4 0 4 0 0 Z " fill="#DE0928" transform="translate(576,357)"/>
<path d="M0 0 C2.20319677 4.40639354 3.10924981 6.97450871 3 12 C2.01 11.34 1.02 10.68 0 10 C-0.29296875 7.6171875 -0.29296875 7.6171875 -0.1875 4.875 C-0.16042969 3.96492188 -0.13335938 3.05484375 -0.10546875 2.1171875 C-0.07066406 1.41851562 -0.03585937 0.71984375 0 0 Z " fill="#DC1637" transform="translate(565,305)"/>
<path d="M0 0 C0.33 0 0.66 0 1 0 C1 2.64 1 5.28 1 8 C0.34 8 -0.32 8 -1 8 C-1.66 9.32 -2.32 10.64 -3 12 C-2.68950274 10.56206608 -2.3765224 9.1246682 -2.0625 7.6875 C-1.88847656 6.88699219 -1.71445312 6.08648437 -1.53515625 5.26171875 C-1 3 -1 3 0 0 Z " fill="#DA2646" transform="translate(424,247)"/>
<path d="M0 0 C1.00289063 0.10183594 2.00578125 0.20367187 3.0390625 0.30859375 C3.80992187 0.39238281 4.58078125 0.47617188 5.375 0.5625 C5.375 0.8925 5.375 1.2225 5.375 1.5625 C-1.06 2.0575 -1.06 2.0575 -7.625 2.5625 C-7.625 1.9025 -7.625 1.2425 -7.625 0.5625 C-4.89657939 -0.80171031 -3.01546682 -0.31557211 0 0 Z " fill="#DD2044" transform="translate(490.625,216.4375)"/>
<path d="M0 0 C-2.88087546 2.40072955 -5.56404834 4.47291037 -9 6 C-9 3 -9 3 -7.3125 1.3125 C-4.6402007 -0.20421041 -3.02346601 -0.2519555 0 0 Z " fill="#525151" transform="translate(599,646)"/>
<path d="M0 0 C0.66 0 1.32 0 2 0 C2 0.66 2 1.32 2 2 C3.32 2.33 4.64 2.66 6 3 C5.01 3 4.02 3 3 3 C2.67 4.32 2.34 5.64 2 7 C1.34 7 0.68 7 0 7 C0 4.69 0 2.38 0 0 Z " fill="#676767" transform="translate(834,645)"/>
<path d="M0 0 C3.63 0.66 7.26 1.32 11 2 C11 2.33 11 2.66 11 3 C4.375 4.25 4.375 4.25 1 2 C0.67 1.34 0.34 0.68 0 0 Z " fill="#DB2448" transform="translate(365,538)"/>
<path d="M0 0 C0.33 0.99 0.66 1.98 1 3 C-0.8125 6.1875 -0.8125 6.1875 -3 9 C-3.66 9 -4.32 9 -5 9 C-3.7508258 5.54074837 -2.32472205 2.85306797 0 0 Z " fill="#DB112E" transform="translate(438,395)"/>
<path d="M0 0 C0.33 1.32 0.66 2.64 1 4 C-0.98 5.32 -2.96 6.64 -5 8 C-5 5 -5 5 -2.5 2.3125 C-1.675 1.549375 -0.85 0.78625 0 0 Z " fill="#D92345" transform="translate(455,198)"/>
<path d="M0 0 C1.61949011 2.57213134 2.04408751 3.67669159 1.625 6.75 C1.41875 7.4925 1.2125 8.235 1 9 C0.01 8.67 -0.98 8.34 -2 8 C-1.34 5.36 -0.68 2.72 0 0 Z " fill="#646565" transform="translate(129,693)"/>
<path d="M0 0 C2.8125 -0.25 2.8125 -0.25 6 0 C7.875 2 7.875 2 9 4 C5.625 3.6875 5.625 3.6875 2 3 C1.34 2.01 0.68 1.02 0 0 Z " fill="#515251" transform="translate(607,689)"/>
<path d="M0 0 C0.66 0.33 1.32 0.66 2 1 C2 1.99 2 2.98 2 4 C-0.875 4.625 -0.875 4.625 -4 5 C-4.66 4.34 -5.32 3.68 -6 3 C-4.03533587 1.93224776 -2.03144641 0.93446535 0 0 Z " fill="#606160" transform="translate(866,682)"/>
<path d="M0 0 C0.33 0 0.66 0 1 0 C2.25 6.625 2.25 6.625 0 10 C-1.125 8.375 -1.125 8.375 -2 6 C-1.125 2.75 -1.125 2.75 0 0 Z " fill="#6A696A" transform="translate(510,660)"/>
<path d="M0 0 C2.29633824 3.44450737 2.54016485 5.93812283 3 10 C2.34 10 1.68 10 1 10 C-0.1577506 6.52674819 -0.06866652 3.63932552 0 0 Z " fill="#555554" transform="translate(525,664)"/>
<path d="M0 0 C2.49415272 0.99766109 3.78740335 1.68616685 5.3125 3.9375 C6 6 6 6 5 9 C4.16094435 7.87926138 3.32892169 6.75325453 2.5 5.625 C2.0359375 4.99851562 1.571875 4.37203125 1.09375 3.7265625 C0 2 0 2 0 0 Z " fill="#50504F" transform="translate(249,656)"/>
<path d="M0 0 C-2.97 0.66 -5.94 1.32 -9 2 C-8.67 1.01 -8.34 0.02 -8 -1 C-4.40321889 -2.61235015 -3.79177789 -1.89588895 0 0 Z " fill="#DB1E3E" transform="translate(424,564)"/>
<path d="M0 0 C3.625 0.375 3.625 0.375 7 1 C5.68 2.32 4.36 3.64 3 5 C3 4.01 3 3.02 3 2 C1.35 2 -0.3 2 -2 2 C-1.34 1.34 -0.68 0.68 0 0 Z " fill="#DC1B3B" transform="translate(481,517)"/>
<path d="M0 0 C0.66 0.33 1.32 0.66 2 1 C-1.32307692 4.93846154 -1.32307692 4.93846154 -4.75 5.25 C-5.4925 5.1675 -6.235 5.085 -7 5 C-4.702779 3.25728062 -2.40133271 1.60088848 0 0 Z " fill="#DE1D3D" transform="translate(325,458)"/>
<path d="M0 0 C0.33 0.66 0.66 1.32 1 2 C-3.43076923 5.07692308 -3.43076923 5.07692308 -6.3125 4.6875 C-6.869375 4.460625 -7.42625 4.23375 -8 4 C-5.37801226 1.84622436 -3.35595828 0.59927826 0 0 Z " fill="#DB1733" transform="translate(358,439)"/>
<path d="M0 0 C0.66 0 1.32 0 2 0 C1.46930939 3.82097239 0.50298434 6.06171403 -2 9 C-1.125 2.25 -1.125 2.25 0 0 Z " fill="#DE102E" transform="translate(459,319)"/>
<path d="M0 0 C3.63 0.66 7.26 1.32 11 2 C11 2.33 11 2.66 11 3 C9.54257537 3.08096803 8.08387193 3.13917774 6.625 3.1875 C5.81289063 3.22230469 5.00078125 3.25710938 4.1640625 3.29296875 C3.44992187 3.19628906 2.73578125 3.09960938 2 3 C1.34 2.01 0.68 1.02 0 0 Z " fill="#4A4B49" transform="translate(586,725)"/>
<path d="M0 0 C1.99097846 2.98646769 2.94124926 5.59687262 4 9 C2.68 8.34 1.36 7.68 0 7 C0 4.69 0 2.38 0 0 Z " fill="#656463" transform="translate(408,665)"/>
<path d="M0 0 C4 1 4 1 6 4 C5.67 4.99 5.34 5.98 5 7 C3.35 4.69 1.7 2.38 0 0 Z " fill="#D9213F" transform="translate(292,527)"/>
<path d="M0 0 C0.33 0.66 0.66 1.32 1 2 C-0.65 3.98 -2.3 5.96 -4 8 C-4.33 7.34 -4.66 6.68 -5 6 C-2.59016393 1.29508197 -2.59016393 1.29508197 0 0 Z " fill="#DE0C2C" transform="translate(686,484)"/>
<path d="M0 0 C0.66 0.33 1.32 0.66 2 1 C0.68 2.65 -0.64 4.3 -2 6 C-3.32 5.67 -4.64 5.34 -6 5 C-4.02 3.35 -2.04 1.7 0 0 Z " fill="#DC1B3B" transform="translate(372,427)"/>
<path d="" fill="#808080" transform="translate(0,0)"/>
<path d="M0 0 C2 1 2 1 2 1 Z " fill="#7C7D7C" transform="translate(583,727)"/>
<path d="" fill="#7F8080" transform="translate(0,0)"/>
<path d="" fill="#7F8180" transform="translate(0,0)"/>
<path d="" fill="#7C7D7A" transform="translate(0,0)"/>
<path d="" fill="#7E7F7E" transform="translate(0,0)"/>
<path d="" fill="#7B7C7C" transform="translate(0,0)"/>
<path d="" fill="#80807F" transform="translate(0,0)"/>
<path d="" fill="#81827F" transform="translate(0,0)"/>
<path d="" fill="#7E7C7D" transform="translate(0,0)"/>
<path d="" fill="#7F7D7D" transform="translate(0,0)"/>
<path d="" fill="#7E7E7D" transform="translate(0,0)"/>
<path d="" fill="#7C7C7D" transform="translate(0,0)"/>
<path d="" fill="#828282" transform="translate(0,0)"/>
<path d="" fill="#81807F" transform="translate(0,0)"/>
<path d="M0 0 C2 1 2 1 2 1 Z " fill="#D32E55" transform="translate(630,488)"/>
<path d="" fill="#DB2C53" transform="translate(0,0)"/>
<path d="M0 0 C2 1 2 1 2 1 Z " fill="#C43251" transform="translate(557,168)"/>
<path d="" fill="#494A49" transform="translate(0,0)"/>
<path d="" fill="#7B7C7B" transform="translate(0,0)"/>
<path d="" fill="#818280" transform="translate(0,0)"/>
<path d="" fill="#797878" transform="translate(0,0)"/>
<path d="" fill="#7F7E7D" transform="translate(0,0)"/>
<path d="" fill="#7C7C7C" transform="translate(0,0)"/>
<path d="" fill="#777B79" transform="translate(0,0)"/>
<path d="" fill="#7D7F7E" transform="translate(0,0)"/>
<path d="" fill="#797777" transform="translate(0,0)"/>
<path d="" fill="#7D7979" transform="translate(0,0)"/>
<path d="" fill="#808080" transform="translate(0,0)"/>
<path d="" fill="#7D7E7D" transform="translate(0,0)"/>
<path d="" fill="#81807E" transform="translate(0,0)"/>
<path d="" fill="#7E7F7F" transform="translate(0,0)"/>
<path d="" fill="#808180" transform="translate(0,0)"/>
<path d="" fill="#7F7F7E" transform="translate(0,0)"/>
<path d="" fill="#828383" transform="translate(0,0)"/>
<path d="" fill="#828181" transform="translate(0,0)"/>
<path d="" fill="#7D7D7D" transform="translate(0,0)"/>
<path d="" fill="#7C7D7C" transform="translate(0,0)"/>
<path d="" fill="#7F7F7E" transform="translate(0,0)"/>
<path d="" fill="#7F7D7E" transform="translate(0,0)"/>
<path d="" fill="#807E7C" transform="translate(0,0)"/>
<path d="" fill="#817F7F" transform="translate(0,0)"/>
<path d="" fill="#7D7E7F" transform="translate(0,0)"/>
<path d="" fill="#838582" transform="translate(0,0)"/>
<path d="" fill="#807E7E" transform="translate(0,0)"/>
<path d="" fill="#7E7F7F" transform="translate(0,0)"/>
<path d="" fill="#838483" transform="translate(0,0)"/>
<path d="" fill="#828383" transform="translate(0,0)"/>
<path d="" fill="#848584" transform="translate(0,0)"/>
<path d="" fill="#808180" transform="translate(0,0)"/>
<path d="" fill="#7E8180" transform="translate(0,0)"/>
<path d="" fill="#818180" transform="translate(0,0)"/>
<path d="" fill="#828081" transform="translate(0,0)"/>
<path d="" fill="#838481" transform="translate(0,0)"/>
<path d="" fill="#808182" transform="translate(0,0)"/>
<path d="" fill="#807D7D" transform="translate(0,0)"/>
<path d="" fill="#827F80" transform="translate(0,0)"/>
<path d="" fill="#838384" transform="translate(0,0)"/>
<path d="" fill="#7F7D7E" transform="translate(0,0)"/>
<path d="" fill="#818181" transform="translate(0,0)"/>
<path d="" fill="#848483" transform="translate(0,0)"/>
<path d="" fill="#817E82" transform="translate(0,0)"/>
<path d="" fill="#838182" transform="translate(0,0)"/>
<path d="" fill="#82807F" transform="translate(0,0)"/>
<path d="" fill="#7E7C7C" transform="translate(0,0)"/>
<path d="" fill="#7F807F" transform="translate(0,0)"/>
<path d="" fill="#7D7C7C" transform="translate(0,0)"/>
<path d="" fill="#808080" transform="translate(0,0)"/>
<path d="" fill="#7F8280" transform="translate(0,0)"/>
<path d="" fill="#838282" transform="translate(0,0)"/>
<path d="" fill="#80807F" transform="translate(0,0)"/>
<path d="" fill="#807F80" transform="translate(0,0)"/>
<path d="" fill="#848382" transform="translate(0,0)"/>
<path d="" fill="#7F7F7F" transform="translate(0,0)"/>
<path d="" fill="#7C7D7C" transform="translate(0,0)"/>
<path d="" fill="#80807F" transform="translate(0,0)"/>
<path d="" fill="#818281" transform="translate(0,0)"/>
<path d="" fill="#7E7D7F" transform="translate(0,0)"/>
<path d="" fill="#858284" transform="translate(0,0)"/>
<path d="" fill="#81817E" transform="translate(0,0)"/>
<path d="" fill="#838181" transform="translate(0,0)"/>
<path d="" fill="#848383" transform="translate(0,0)"/>
<path d="" fill="#7D7D7C" transform="translate(0,0)"/>
<path d="" fill="#848384" transform="translate(0,0)"/>
<path d="" fill="#7F807E" transform="translate(0,0)"/>
<path d="" fill="#7E7E7D" transform="translate(0,0)"/>
<path d="" fill="#7D7E7D" transform="translate(0,0)"/>
<path d="" fill="#83817F" transform="translate(0,0)"/>
<path d="" fill="#7F7C7E" transform="translate(0,0)"/>
<path d="" fill="#7F807F" transform="translate(0,0)"/>
<path d="" fill="#838080" transform="translate(0,0)"/>
<path d="" fill="#818280" transform="translate(0,0)"/>
<path d="" fill="#848180" transform="translate(0,0)"/>
<path d="" fill="#7B7E7C" transform="translate(0,0)"/>
<path d="" fill="#878180" transform="translate(0,0)"/>
<path d="" fill="#7D7B7C" transform="translate(0,0)"/>
<path d="" fill="#877D7C" transform="translate(0,0)"/>
<path d="" fill="#CE3658" transform="translate(0,0)"/>
<path d="" fill="#CF3859" transform="translate(0,0)"/>
<path d="" fill="#CF3D5C" transform="translate(0,0)"/>
<path d="" fill="#CE4061" transform="translate(0,0)"/>
<path d="" fill="#D1395C" transform="translate(0,0)"/>
<path d="" fill="#D03757" transform="translate(0,0)"/>
<path d="" fill="#D33658" transform="translate(0,0)"/>
<path d="" fill="#D2395A" transform="translate(0,0)"/>
<path d="" fill="#DA335A" transform="translate(0,0)"/>
<path d="" fill="#CB3557" transform="translate(0,0)"/>
<path d="" fill="#D73359" transform="translate(0,0)"/>
<path d="" fill="#DA365C" transform="translate(0,0)"/>
<path d="" fill="#D43959" transform="translate(0,0)"/>
<path d="" fill="#CB3156" transform="translate(0,0)"/>
<path d="" fill="#D4335D" transform="translate(0,0)"/>
<path d="" fill="#D72E57" transform="translate(0,0)"/>
<path d="" fill="#D9345B" transform="translate(0,0)"/>
<path d="" fill="#D92E55" transform="translate(0,0)"/>
<path d="" fill="#DA3157" transform="translate(0,0)"/>
<path d="" fill="#C53255" transform="translate(0,0)"/>
<path d="" fill="#D7345C" transform="translate(0,0)"/>
<path d="" fill="#BF3357" transform="translate(0,0)"/>
<path d="" fill="#D33554" transform="translate(0,0)"/>
<path d="" fill="#DA3258" transform="translate(0,0)"/>
<path d="" fill="#D6365B" transform="translate(0,0)"/>
<path d="" fill="#D23655" transform="translate(0,0)"/>
<path d="" fill="#DB2E58" transform="translate(0,0)"/>
<path d="" fill="#D53658" transform="translate(0,0)"/>
<path d="" fill="#C73A59" transform="translate(0,0)"/>
<path d="" fill="#D63758" transform="translate(0,0)"/>
<path d="" fill="#C83759" transform="translate(0,0)"/>
<path d="" fill="#D63659" transform="translate(0,0)"/>
<path d="" fill="#C73955" transform="translate(0,0)"/>
<path d="" fill="#CB3B5B" transform="translate(0,0)"/>
<path d="" fill="#D7365B" transform="translate(0,0)"/>
<path d="" fill="#D9375F" transform="translate(0,0)"/>
<path d="" fill="#D62D57" transform="translate(0,0)"/>
<path d="" fill="#D4355D" transform="translate(0,0)"/>
<path d="" fill="#D52F56" transform="translate(0,0)"/>
<path d="" fill="#C83458" transform="translate(0,0)"/>
<path d="" fill="#DA2C56" transform="translate(0,0)"/>
<path d="" fill="#CF3757" transform="translate(0,0)"/>
<path d="" fill="#DD2C54" transform="translate(0,0)"/>
<path d="" fill="#D42D52" transform="translate(0,0)"/>
<path d="" fill="#D82C55" transform="translate(0,0)"/>
<path d="" fill="#D3345A" transform="translate(0,0)"/>
<path d="" fill="#D53156" transform="translate(0,0)"/>
<path d="" fill="#DC2C53" transform="translate(0,0)"/>
<path d="" fill="#DB2C54" transform="translate(0,0)"/>
<path d="" fill="#D82C53" transform="translate(0,0)"/>
<path d="" fill="#CC3357" transform="translate(0,0)"/>
<path d="" fill="#CC3355" transform="translate(0,0)"/>
<path d="" fill="#DA2C58" transform="translate(0,0)"/>
<path d="" fill="#DB2F58" transform="translate(0,0)"/>
<path d="" fill="#DB2B55" transform="translate(0,0)"/>
<path d="" fill="#DD2A50" transform="translate(0,0)"/>
<path d="" fill="#DB2854" transform="translate(0,0)"/>
<path d="" fill="#DC2B52" transform="translate(0,0)"/>
<path d="" fill="#D33358" transform="translate(0,0)"/>
<path d="" fill="#D63059" transform="translate(0,0)"/>
<path d="" fill="#CB375B" transform="translate(0,0)"/>
<path d="" fill="#DF2B53" transform="translate(0,0)"/>
<path d="" fill="#D32F54" transform="translate(0,0)"/>
<path d="" fill="#DD2E56" transform="translate(0,0)"/>
<path d="" fill="#DC2A50" transform="translate(0,0)"/>
<path d="" fill="#DA2D55" transform="translate(0,0)"/>
<path d="" fill="#D63356" transform="translate(0,0)"/>
<path d="" fill="#CE3757" transform="translate(0,0)"/>
<path d="" fill="#DA2A53" transform="translate(0,0)"/>
<path d="" fill="#DA3257" transform="translate(0,0)"/>
<path d="" fill="#D6305A" transform="translate(0,0)"/>
<path d="" fill="#D32E56" transform="translate(0,0)"/>
<path d="" fill="#DA3057" transform="translate(0,0)"/>
<path d="" fill="#DA2E54" transform="translate(0,0)"/>
<path d="" fill="#D63358" transform="translate(0,0)"/>
<path d="" fill="#DA2F57" transform="translate(0,0)"/>
<path d="" fill="#D92955" transform="translate(0,0)"/>
<path d="" fill="#D6335A" transform="translate(0,0)"/>
<path d="" fill="#D32F55" transform="translate(0,0)"/>
<path d="" fill="#DA2F56" transform="translate(0,0)"/>
<path d="" fill="#DC2B53" transform="translate(0,0)"/>
<path d="" fill="#D13357" transform="translate(0,0)"/>
<path d="" fill="#D33257" transform="translate(0,0)"/>
<path d="" fill="#D53457" transform="translate(0,0)"/>
<path d="" fill="#D72853" transform="translate(0,0)"/>
<path d="" fill="#D03158" transform="translate(0,0)"/>
<path d="" fill="#DC2752" transform="translate(0,0)"/>
<path d="" fill="#D92B56" transform="translate(0,0)"/>
<path d="" fill="#DE2953" transform="translate(0,0)"/>
<path d="" fill="#DC2853" transform="translate(0,0)"/>
<path d="" fill="#CE3356" transform="translate(0,0)"/>
<path d="" fill="#CE2E53" transform="translate(0,0)"/>
<path d="" fill="#CB2F4F" transform="translate(0,0)"/>
<path d="" fill="#CE2F53" transform="translate(0,0)"/>
</svg>
